<svg xmlns="http://www.w3.org/2000/svg" width="32.343" height="32.343" viewBox="0 0 32.343 32.343"><path d="M16.172,0a16.174,16.174,0,0,0-5.893,31.236,15.537,15.537,0,0,1,.056-4.644c.294-1.262,1.9-8.038,1.9-8.038a5.839,5.839,0,0,1-.484-2.4c0-2.249,1.3-3.927,2.926-3.927A2.032,2.032,0,0,1,16.719,14.5c0,1.387-.883,3.462-1.339,5.384a2.348,2.348,0,0,0,2.395,2.922c2.874,0,5.084-3.031,5.084-7.405A6.384,6.384,0,0,0,16.1,8.825a7,7,0,0,0-7.3,7.018,6.291,6.291,0,0,0,1.2,3.69.483.483,0,0,1,.112.464c-.123.511-.4,1.609-.449,1.834-.071.3-.234.359-.541.216-2.02-.94-3.283-3.893-3.283-6.265C5.844,10.681,9.551,6,16.529,6c5.61,0,9.97,4,9.97,9.34,0,5.573-3.514,10.059-8.392,10.059A4.328,4.328,0,0,1,14.4,23.538s-.811,3.088-1.007,3.844a18.081,18.081,0,0,1-2.01,4.24A16.173,16.173,0,1,0,16.172,0Z" fill="#fff"/></svg>