<svg xmlns="http://www.w3.org/2000/svg" width="47.306" height="52.835" viewBox="0 0 47.306 52.835"><g transform="translate(-520.634 -209.89)"><g transform="translate(520.634 209.89)"><path d="M567.912,355.4a2.147,2.147,0,0,0-1.115-1.561l-10.756-5.351c-.5,1.115-1.115,2.286-1.783,3.566l8.081,4.012-4.345,3.792a2.048,2.048,0,0,0-.557,2.34l3.287,7.3-15.715,3.233-19.784-10.924,3.4-7.524,6.241-1.058c-.725-1.337-1.337-2.619-1.894-3.734l-6.019,1a2.088,2.088,0,0,0-1.5,1.115l-4.626,10.253a1.965,1.965,0,0,0,.836,2.564l22.124,12.15a1.829,1.829,0,0,0,.947.222.933.933,0,0,0,.39-.057l18.891-3.9a1.933,1.933,0,0,0,1.393-1.058,2.086,2.086,0,0,0,.057-1.729l-3.679-8.249,5.516-4.737a1.65,1.65,0,0,0,.616-1.672Z" transform="translate(-520.634 -323.97)" fill="#cbc46e"/><path d="M601.475,243.553c3.455-6.019,9.474-17.109,9.474-21.792a11.871,11.871,0,1,0-23.742,0c0,4.68,6.019,15.772,9.474,21.792a2.772,2.772,0,0,0,4.794,0Zm-7.913-21.846a5.516,5.516,0,1,1,5.516,5.516A5.457,5.457,0,0,1,593.562,221.707Z" transform="translate(-575.429 -209.89)" fill="#cbc46e"/></g></g></svg>