<svg xmlns="http://www.w3.org/2000/svg" width="100.87" height="53.287" viewBox="0 0 100.87 53.287"><g transform="translate(-74.337 -312.203)"><g transform="translate(9.565 26.053)"><g transform="translate(64.772 286.15)"><path d="M134.046,291.75a5.6,5.6,0,1,0-5.6,5.6A5.607,5.607,0,0,0,134.046,291.75Z" transform="translate(-111.199 -286.15)" fill="#cbc46e"/><path d="M229,291.75a5.6,5.6,0,1,0-5.6,5.6A5.607,5.607,0,0,0,229,291.75Z" transform="translate(-187.108 -286.15)" fill="#cbc46e"/><path d="M324.046,291.75a5.6,5.6,0,1,0-5.6,5.6A5.607,5.607,0,0,0,324.046,291.75Z" transform="translate(-263.094 -286.15)" fill="#cbc46e"/><path d="M170.269,339.193a5.6,5.6,0,1,0,5.6-5.6A5.607,5.607,0,0,0,170.269,339.193Z" transform="translate(-149.111 -324.078)" fill="#cbc46e"/><path d="M165.472,429.627h4.012a3.072,3.072,0,0,0,3.069-3.069V416.23a3.073,3.073,0,0,0,2.632-3.037v-8.609a5.625,5.625,0,0,0-5.618-5.618H165.39a5.625,5.625,0,0,0-5.618,5.618v8.609a3.073,3.073,0,0,0,2.632,3.037v10.328A3.071,3.071,0,0,0,165.472,429.627Z" transform="translate(-140.719 -376.34)" fill="#cbc46e"/><path d="M75.269,339.193a5.6,5.6,0,1,0,5.6-5.6A5.607,5.607,0,0,0,75.269,339.193Z" transform="translate(-73.164 -324.078)" fill="#cbc46e"/><path d="M70.472,429.627h4.012a3.072,3.072,0,0,0,3.069-3.069V416.23a3.073,3.073,0,0,0,2.632-3.037v-8.609a5.625,5.625,0,0,0-5.618-5.618H70.39a5.625,5.625,0,0,0-5.618,5.618v8.609A3.073,3.073,0,0,0,67.4,416.23v10.328A3.071,3.071,0,0,0,70.472,429.627Z" transform="translate(-64.772 -376.34)" fill="#cbc46e"/><path d="M260.523,428.249h4.012a3.072,3.072,0,0,0,3.069-3.069V414.852a3.073,3.073,0,0,0,2.633-3.037v-8.609a5.625,5.625,0,0,0-5.619-5.618h-4.176a5.624,5.624,0,0,0-5.618,5.618v8.609a3.073,3.073,0,0,0,2.632,3.037V425.18A3.07,3.07,0,0,0,260.523,428.249Z" transform="translate(-216.708 -375.239)" fill="#cbc46e"/><path d="M365.972,343.415a5.6,5.6,0,1,0-5.6-5.6A5.607,5.607,0,0,0,365.972,343.415Z" transform="translate(-301.089 -322.977)" fill="#cbc46e"/><path d="M359.667,397.588H355.49a5.625,5.625,0,0,0-5.618,5.618v8.609a3.073,3.073,0,0,0,2.632,3.037V425.18a3.072,3.072,0,0,0,3.069,3.069h4.011a3.072,3.072,0,0,0,3.069-3.069V414.853a3.074,3.074,0,0,0,2.633-3.038v-8.609A5.627,5.627,0,0,0,359.667,397.588Z" transform="translate(-292.694 -375.239)" fill="#cbc46e"/><path d="M506.972,333.218a4.6,4.6,0,1,1-4.6,4.6,4.6,4.6,0,0,1,4.6-4.6m0-1a5.6,5.6,0,1,0,5.6,5.6,5.607,5.607,0,0,0-5.6-5.6Z" transform="translate(-413.811 -322.977)" fill="#cbc46e"/><path d="M500.667,398.591a4.623,4.623,0,0,1,4.617,4.615v8.609a2.075,2.075,0,0,1-1.772,2.045l-.861.123v11.2a2.068,2.068,0,0,1-2.066,2.066h-4.011a2.068,2.068,0,0,1-2.066-2.066v-11.2l-.861-.123a2.075,2.075,0,0,1-1.771-2.045v-8.609a4.62,4.62,0,0,1,4.615-4.615h4.177m0-1H496.49a5.625,5.625,0,0,0-5.618,5.618v8.609a3.073,3.073,0,0,0,2.632,3.037V425.18a3.072,3.072,0,0,0,3.069,3.069h4.011a3.072,3.072,0,0,0,3.069-3.069V414.853a3.074,3.074,0,0,0,2.633-3.038v-8.609a5.627,5.627,0,0,0-5.619-5.618Z" transform="translate(-405.416 -375.239)" fill="#cbc46e"/><path d="M265.323,337.815a5.6,5.6,0,1,0,5.6-5.6A5.607,5.607,0,0,0,265.323,337.815Z" transform="translate(-225.102 -322.977)" fill="#cbc46e"/><rect width="4" height="4" transform="translate(77 26.947)" fill="#898989"/><rect width="4" height="4" transform="translate(77 33.947)" fill="#898989"/></g></g></g></svg>