<svg xmlns="http://www.w3.org/2000/svg" width="53.706" height="43.189" viewBox="0 0 53.706 43.189"><g transform="translate(-155 -440)"><g transform="translate(155 440)"><path d="M207.812,451.075l-18.587-9.354a16.139,16.139,0,0,0-14.433-.034L155.9,451.071a1.621,1.621,0,0,0,0,2.9l18.889,9.388a16.13,16.13,0,0,0,14.433-.036l1.628-.818v-.12L183.189,456a7.9,7.9,0,0,1-1.355.128c-2.989,0-5.41-1.615-5.41-3.606s2.423-3.606,5.41-3.606,5.41,1.615,5.41,3.606a2.683,2.683,0,0,1-.621,1.645l7.831,6.524,13.357-6.72a1.624,1.624,0,0,0,0-2.9Z" transform="translate(-155 -440)" fill="#cbc46e"/><path d="M226.565,554.694a3.592,3.592,0,0,1,1.8,3.107v5.41c0,1-1.615,1.8-3.606,1.8s-3.606-.806-3.606-1.8V557.8a3.59,3.59,0,0,1,1.8-3.107v-2.926l-.818.413a17.934,17.934,0,0,1-16.045.042l-11.991-5.958v15.149c0,4.98,8.882,9.017,19.839,9.017s19.839-4.036,19.839-9.017V546.328l-7.215,3.631,0,4.735Z" transform="translate(-187.106 -527.242)" fill="#cbc46e"/></g></g></svg>