<svg xmlns="http://www.w3.org/2000/svg" width="68" height="68" viewBox="0 0 68 68"><path d="M-1921,68a33.788,33.788,0,0,1-13.235-2.672,33.887,33.887,0,0,1-10.807-7.287,33.889,33.889,0,0,1-7.286-10.807A33.789,33.789,0,0,1-1955,34a33.789,33.789,0,0,1,2.672-13.234,33.889,33.889,0,0,1,7.286-10.807,33.887,33.887,0,0,1,10.807-7.287A33.788,33.788,0,0,1-1921,0a33.785,33.785,0,0,1,13.234,2.672,33.887,33.887,0,0,1,10.807,7.287,33.889,33.889,0,0,1,7.286,10.807A33.789,33.789,0,0,1-1887,34a33.789,33.789,0,0,1-2.672,13.234,33.889,33.889,0,0,1-7.286,10.807,33.887,33.887,0,0,1-10.807,7.287A33.785,33.785,0,0,1-1921,68Zm-8.635-52a3.483,3.483,0,0,0-2.315.869,3.261,3.261,0,0,0-1.05,2.5V48.623a3.329,3.329,0,0,0,1.032,2.435,3.436,3.436,0,0,0,2.348.945,3.358,3.358,0,0,0,1.711-.475l24.75-14.625a3.341,3.341,0,0,0,1.659-2.908,3.333,3.333,0,0,0-1.659-2.9l-24.75-14.632A3.389,3.389,0,0,0-1929.635,16Z" transform="translate(1955)" fill="#fff"/></svg>