<svg xmlns="http://www.w3.org/2000/svg" width="83.932" height="52.934" viewBox="0 0 83.932 52.934"><path d="M458.235,800.232a8.072,8.072,0,1,0,8.072,8.071A8.08,8.08,0,0,0,458.235,800.232Zm0,15.073a7,7,0,1,1,7-7A7.01,7.01,0,0,1,458.235,815.3Zm.837-11.422.551,1.7a.88.88,0,0,0,.837.608h1.783a.881.881,0,0,1,.517,1.593l-1.442,1.049a.88.88,0,0,0-.32.985l.551,1.7a.881.881,0,0,1-1.355.985l-1.443-1.049a.881.881,0,0,0-1.035,0l-1.442,1.049a.881.881,0,0,1-1.355-.985l.551-1.7a.882.882,0,0,0-.32-.985l-1.443-1.049a.881.881,0,0,1,.518-1.593h1.783a.881.881,0,0,0,.837-.608l.551-1.7A.879.879,0,0,1,459.073,803.883Zm-53.313-3.651a8.072,8.072,0,1,0,8.072,8.071A8.08,8.08,0,0,0,405.759,800.232Zm0,15.073a7,7,0,1,1,7-7A7.01,7.01,0,0,1,405.759,815.3Zm.837-11.422.551,1.7a.88.88,0,0,0,.837.608h1.783a.881.881,0,0,1,.517,1.593l-1.442,1.049a.88.88,0,0,0-.32.985l.551,1.7a.881.881,0,0,1-1.355.985l-1.443-1.049a.881.881,0,0,0-1.035,0l-1.442,1.049a.881.881,0,0,1-1.355-.985l.551-1.7a.882.882,0,0,0-.32-.985l-1.443-1.049a.881.881,0,0,1,.518-1.593h1.783a.881.881,0,0,0,.837-.608l.551-1.7A.879.879,0,0,1,406.6,803.883Zm38.133,5.87-1.6-1.345-.369-2.061a4.375,4.375,0,0,0-4.317-3.623h-2.093l-1.606-1.345a4.366,4.366,0,0,0-5.64,0l-1.606,1.345H425.4a4.368,4.368,0,0,0-4.317,3.623l-.368,2.061-1.6,1.345a4.391,4.391,0,0,0-.976,5.554l1.052,1.812-.368,2.061a4.454,4.454,0,0,0,.368,2.69c.054.109.119.206.184.315a2.944,2.944,0,0,0,.217.336,4.4,4.4,0,0,0,2.05,1.551l1.963.716,1.052,1.812a4.27,4.27,0,0,0,1.215,1.345,4.432,4.432,0,0,0,4.089.586l1.962-.717,1.963.716a4.5,4.5,0,0,0,1.508.261,1.052,1.052,0,0,0,.261-.022,4.243,4.243,0,0,0,2.332-.825,4.485,4.485,0,0,0,1.2-1.345l1.052-1.812,1.963-.716a4.393,4.393,0,0,0,2.05-1.551,2.91,2.91,0,0,0,.217-.336c.065-.109.13-.206.184-.315a4.446,4.446,0,0,0,.368-2.69l-.358-2.061L445.7,815.3A4.39,4.39,0,0,0,444.729,809.752Zm-12.81,15.392A10.577,10.577,0,1,1,442.5,814.567,10.593,10.593,0,0,1,431.919,825.144Zm9.3,2.281a6.858,6.858,0,0,1-5.217,3.51,6.526,6.526,0,0,1-2.863-.373l-.8-.292,6.395,16.743,1.167-2.41a4.119,4.119,0,0,1,5.276-2.015l2.475,1.019-6.28-16.444ZM430.7,830.566a6.56,6.56,0,0,1-7.925-2.884l-.3-.521-6.28,16.445,2.476-1.019a4.12,4.12,0,0,1,5.276,2.015l1.167,2.41,6.394-16.741Zm1.223-24.068a8.072,8.072,0,1,0,8.072,8.071A8.08,8.08,0,0,0,431.919,806.5Zm0,15.073a7,7,0,1,1,7-7A7.01,7.01,0,0,1,431.919,821.571Zm.837-11.422.551,1.7a.88.88,0,0,0,.837.608h1.783a.881.881,0,0,1,.517,1.593L435,815.095a.88.88,0,0,0-.32.985l.551,1.7a.881.881,0,0,1-1.355.985l-1.443-1.049a.881.881,0,0,0-1.035,0l-1.442,1.049a.881.881,0,0,1-1.355-.985l.551-1.7a.882.882,0,0,0-.32-.985l-1.443-1.049a.881.881,0,0,1,.518-1.593h1.783a.881.881,0,0,0,.837-.608l.551-1.7A.879.879,0,0,1,432.756,810.148Zm11.973-.4-1.6-1.345-.369-2.061a4.375,4.375,0,0,0-4.317-3.623h-2.093l-1.606-1.345a4.366,4.366,0,0,0-5.64,0l-1.606,1.345H425.4a4.368,4.368,0,0,0-4.317,3.623l-.368,2.061-1.6,1.345a4.391,4.391,0,0,0-.976,5.554l1.052,1.812-.368,2.061a4.454,4.454,0,0,0,.368,2.69c.054.109.119.206.184.315a2.944,2.944,0,0,0,.217.336,4.4,4.4,0,0,0,2.05,1.551l1.963.716,1.052,1.812a4.27,4.27,0,0,0,1.215,1.345,4.432,4.432,0,0,0,4.089.586l1.962-.717,1.963.716a4.5,4.5,0,0,0,1.508.261,1.052,1.052,0,0,0,.261-.022,4.243,4.243,0,0,0,2.332-.825,4.485,4.485,0,0,0,1.2-1.345l1.052-1.812,1.963-.716a4.393,4.393,0,0,0,2.05-1.551,2.91,2.91,0,0,0,.217-.336c.065-.109.13-.206.184-.315a4.446,4.446,0,0,0,.368-2.69l-.358-2.061L445.7,815.3A4.39,4.39,0,0,0,444.729,809.752Zm-12.81,15.392A10.577,10.577,0,1,1,442.5,814.567,10.593,10.593,0,0,1,431.919,825.144Zm9.3,2.281a6.858,6.858,0,0,1-5.217,3.51,6.526,6.526,0,0,1-2.863-.373l-.8-.292,6.395,16.743,1.167-2.41a4.119,4.119,0,0,1,5.276-2.015l2.475,1.019-6.28-16.444ZM430.7,830.566a6.56,6.56,0,0,1-7.925-2.884l-.3-.521-6.28,16.445,2.476-1.019a4.12,4.12,0,0,1,5.276,2.015l1.167,2.41,6.394-16.741Zm14.033-20.814-1.6-1.345-.369-2.061a4.375,4.375,0,0,0-4.317-3.623h-2.093l-1.606-1.345a4.366,4.366,0,0,0-5.64,0l-1.606,1.345H425.4a4.368,4.368,0,0,0-4.317,3.623l-.368,2.061-1.6,1.345a4.391,4.391,0,0,0-.976,5.554l1.052,1.812-.368,2.061a4.454,4.454,0,0,0,.368,2.69c.054.109.119.206.184.315a2.944,2.944,0,0,0,.217.336,4.4,4.4,0,0,0,2.05,1.551l1.963.716,1.052,1.812a4.27,4.27,0,0,0,1.215,1.345,4.432,4.432,0,0,0,4.089.586l1.962-.717,1.963.716a4.5,4.5,0,0,0,1.508.261,1.052,1.052,0,0,0,.261-.022,4.243,4.243,0,0,0,2.332-.825,4.485,4.485,0,0,0,1.2-1.345l1.052-1.812,1.963-.716a4.393,4.393,0,0,0,2.05-1.551,2.91,2.91,0,0,0,.217-.336c.065-.109.13-.206.184-.315a4.446,4.446,0,0,0,.368-2.69l-.358-2.061L445.7,815.3A4.39,4.39,0,0,0,444.729,809.752Zm-12.81,15.392A10.577,10.577,0,1,1,442.5,814.567,10.593,10.593,0,0,1,431.919,825.144Zm25.093-.844.807-.294-6.394,16.741-1.167-2.41a4.12,4.12,0,0,0-3.835-2.322l-1.705-4.465,4.068-10.653.3.521A6.56,6.56,0,0,0,457.012,824.3Zm16.951,13.041-2.475-1.019a4.119,4.119,0,0,0-5.276,2.015l-1.167,2.41L458.651,824l.8.292a6.525,6.525,0,0,0,2.863.373,6.858,6.858,0,0,0,5.217-3.51l.151-.262Zm-12.257-14.817a1.055,1.055,0,0,0,.261-.022,4.244,4.244,0,0,0,2.332-.825,4.485,4.485,0,0,0,1.2-1.345l1.052-1.812,1.963-.716a4.393,4.393,0,0,0,2.05-1.551,2.911,2.911,0,0,0,.217-.336c.065-.109.13-.206.184-.315a4.446,4.446,0,0,0,.368-2.69l-.358-2.061,1.041-1.812a4.39,4.39,0,0,0-.976-5.553l-1.6-1.345-.369-2.061a4.375,4.375,0,0,0-4.317-3.623h-2.093l-1.606-1.345a4.366,4.366,0,0,0-5.64,0l-1.606,1.345h-2.093a4.368,4.368,0,0,0-4.317,3.623l-.368,2.061-1.6,1.345a4.368,4.368,0,0,0-1.3,1.866,5.989,5.989,0,0,1,.175.724l.267,1.5,1.169.98a5.946,5.946,0,0,1,1.326,7.536l-.508.883a4.472,4.472,0,0,0,1.4.834l1.963.716,1.052,1.812a4.269,4.269,0,0,0,1.215,1.345,4.432,4.432,0,0,0,4.089.586l1.962-.717,1.963.716A4.5,4.5,0,0,0,461.706,822.523ZM447.659,808.3a10.577,10.577,0,1,1,10.577,10.577A10.593,10.593,0,0,1,447.659,808.3Zm-43.122,16,.807-.294-6.394,16.741-1.167-2.41a4.12,4.12,0,0,0-5.276-2.015l-2.476,1.019,6.28-16.445.3.521A6.56,6.56,0,0,0,404.536,824.3Zm4.694-1.776a1.055,1.055,0,0,0,.261-.022,4.244,4.244,0,0,0,2.332-.825,4.486,4.486,0,0,0,1.2-1.345l1.052-1.812,1.963-.716a4.469,4.469,0,0,0,1.3-.749l-.559-.963a5.949,5.949,0,0,1,1.323-7.539l1.171-.981.268-1.5a5.992,5.992,0,0,1,.243-.932,4.36,4.36,0,0,0-1.215-1.652l-1.6-1.345-.369-2.061a4.375,4.375,0,0,0-4.317-3.623h-2.093l-1.606-1.345a4.366,4.366,0,0,0-5.641,0l-1.606,1.345H399.24a4.368,4.368,0,0,0-4.317,3.623l-.368,2.061-1.6,1.345a4.391,4.391,0,0,0-.976,5.554l1.052,1.812-.368,2.061a4.455,4.455,0,0,0,.368,2.69c.054.109.119.206.184.315a2.942,2.942,0,0,0,.217.336,4.4,4.4,0,0,0,2.05,1.551l1.963.716,1.052,1.812a4.269,4.269,0,0,0,1.215,1.345,4.432,4.432,0,0,0,4.089.586l1.962-.717,1.963.716A4.5,4.5,0,0,0,409.23,822.523ZM395.182,808.3a10.577,10.577,0,1,1,10.577,10.577A10.593,10.593,0,0,1,395.182,808.3Zm18.554,30.035-1.167,2.41L406.175,824l.8.292a6.525,6.525,0,0,0,2.863.373,6.858,6.858,0,0,0,5.217-3.51l.151-.262,3.99,10.447-1.783,4.668A4.119,4.119,0,0,0,413.736,838.336Z" transform="translate(-390.031 -794.079)" fill="#d7d392"/></svg>