<svg xmlns="http://www.w3.org/2000/svg" width="60.788" height="53" viewBox="0 0 60.788 53"><g transform="translate(-497.269 -249.003)"><g transform="translate(524.529 273.409)"><path d="M637.09,371.7v1.235h-6.174v-1.045a3.148,3.148,0,0,1,2.945-3.229A2.993,2.993,0,0,1,637.09,371.7Z" transform="translate(-630.916 -368.658)" fill="#d7d392"/></g><g transform="translate(497.269 249.003)"><g transform="translate(2.28 6.174)"><path d="M564.484,281.457V316.6a1.659,1.659,0,0,1-.38,1.14h-55.28a2.7,2.7,0,0,1-.38-1.14V281.457a2.108,2.108,0,0,1,2.09-2.09h7.6v4.844H513V313.18h46.921V284.116h-5.414v-4.844H562.3A2.149,2.149,0,0,1,564.484,281.457Z" transform="translate(-508.445 -279.272)" fill="#d7d392"/></g><path d="M558.057,477.752a5.919,5.919,0,0,1-5.889,5.889H503.158a5.918,5.918,0,0,1-5.889-5.889.613.613,0,0,1,.57-.57h23.935v1.045a1.905,1.905,0,0,0,1.9,1.9h8.073a1.905,1.905,0,0,0,1.9-1.9v-1.045h23.935A.616.616,0,0,1,558.057,477.752Z" transform="translate(-497.269 -430.641)" fill="#d7d392"/><g transform="translate(21.466 7.314)"><path d="M609.919,288.564a3.7,3.7,0,1,1-3.7-3.7A3.709,3.709,0,0,1,609.919,288.564Z" transform="translate(-602.51 -284.86)" fill="#d7d392"/></g><path d="M569.228,249a3,3,0,0,0-3.04,3.039v35.048h32.389V252.042a5,5,0,0,1,1.14-3.039Zm2.184,14.437c-.285-.475.19-1.33.1-1.8-.1-.57-.95-.95-.95-1.52s.855-1.045.95-1.615c.19-.57-.38-1.33-.1-1.8s1.235-.475,1.615-.855.38-1.33.855-1.615,1.33.19,1.8.1c.57-.1.95-.95,1.615-.95.57,0,1.045.855,1.52.95.57.19,1.33-.38,1.8-.1s.475,1.235.855,1.615,1.33.38,1.615.855-.19,1.33-.1,1.8c.19.57.95.95.95,1.52s-.855,1.045-.95,1.615c-.19.57.38,1.33.1,1.8s-1.235.475-1.615.855-.38,1.33-.855,1.615-1.33-.19-1.8-.1c-.57.1-.95.95-1.52.95s-1.045-.855-1.52-.95c-.57-.19-1.33.38-1.8.1s-.475-1.235-.855-1.615C572.647,263.915,571.7,263.915,571.412,263.44Zm9.213,4.464v7.409l-3.324-2.944-3.229,2.944V267.9c.475.19,1.235-.285,1.71-.1.57.1.95.95,1.52.95s1.045-.855,1.52-.95C579.39,267.714,580.15,268.094,580.625,267.9Zm13.013,15.672H572.552a.952.952,0,0,1-.95-.95,1.021,1.021,0,0,1,.95-.95h21.086a.95.95,0,1,1,0,1.9Zm0-4.939H572.552a.95.95,0,0,1,0-1.9h21.086a.952.952,0,0,1,.95.95C594.683,278.257,594.208,278.637,593.638,278.637Zm0-5.984H586.8a.95.95,0,1,1,0-1.9h6.839a.952.952,0,0,1,.95.95C594.683,272.274,594.208,272.653,593.638,272.653Zm0-5.889H586.8a.95.95,0,1,1,0-1.9h6.839a.952.952,0,0,1,.95.95A.9.9,0,0,1,593.638,266.765Zm0-5.984H586.8a.95.95,0,1,1,0-1.9h6.839a.952.952,0,0,1,.95.95A.9.9,0,0,1,593.638,260.781Zm0-5.984H586.8a.95.95,0,1,1,0-1.9h6.839a.952.952,0,0,1,.95.95A.9.9,0,0,1,593.638,254.8Z" transform="translate(-552.131 -249.003)" fill="#d7d392"/></g></g></svg>