<svg xmlns="http://www.w3.org/2000/svg" width="33" height="33" viewBox="0 0 33 33"><path d="M16.5,33A16.5,16.5,0,0,1,10.077,1.3,16.5,16.5,0,0,1,22.922,31.7,16.4,16.4,0,0,1,16.5,33ZM8.107,9.2A1.509,1.509,0,0,0,6.6,10.712V24.274a1.508,1.508,0,0,0,1.507,1.507H24.735a1.457,1.457,0,0,0,1.455-1.455V7.7a1.509,1.509,0,0,0-1.507-1.507l-13.092.094A1.352,1.352,0,0,0,10.179,7.7V22.862a.659.659,0,0,1-1.319,0V9.2Zm14.41,12.621h-9.23a.659.659,0,0,1,0-1.319h9.23a.659.659,0,0,1,0,1.319Zm-2.26-3.767h-6.97a.659.659,0,0,1,0-1.319h6.97a.659.659,0,0,1,0,1.319Zm2.26-3.767h-9.23a.659.659,0,0,1,0-1.319h9.23a.659.659,0,1,1,0,1.319Zm-5.274-3.767H13.287a.659.659,0,0,1,0-1.319h3.956a.659.659,0,0,1,0,1.319Z" fill="#fff"/></svg>