<svg xmlns="http://www.w3.org/2000/svg" width="32.343" height="32.343" viewBox="0 0 32.343 32.343"><path d="M139.492,138.137a1.758,1.758,0,1,0,1.757,1.757A1.758,1.758,0,0,0,139.492,138.137Z" transform="translate(-129.028 -129.405)" fill="#fff"/><rect width="3.032" height="9.754" transform="translate(8.949 13.633)" fill="#fff"/><path d="M16.172,0A16.172,16.172,0,1,0,32.343,16.172,16.172,16.172,0,0,0,16.172,0ZM26.446,24.963a1.5,1.5,0,0,1-1.521,1.483H7.414A1.5,1.5,0,0,1,5.9,24.963V7.378A1.5,1.5,0,0,1,7.414,5.9H24.925a1.5,1.5,0,0,1,1.521,1.481Z" fill="#fff"/><path d="M225.907,211.443a3.185,3.185,0,0,0-2.868,1.576H223v-1.333H220.09v9.754h3.029v-4.825c0-1.272.242-2.5,1.819-2.5,1.555,0,1.575,1.455,1.575,2.587v4.743h3.03v-5.35C229.543,213.463,228.977,211.443,225.907,211.443Z" transform="translate(-206.156 -198.054)" fill="#fff"/></svg>