<svg xmlns="http://www.w3.org/2000/svg" width="54.166" height="54.147" viewBox="0 0 54.166 54.147"><g transform="translate(-504.658 -209.662)"><g transform="translate(504.658 209.662)"><g transform="translate(5.922 0)"><path d="M579.5,222.218a.848.848,0,0,0-.567-.339c-8.083-1.134-14.541-5.027-19.754-11.9a.881.881,0,0,0-1.354,0c-5.214,6.873-11.672,10.766-19.755,11.9a.848.848,0,0,0-.567.339.875.875,0,0,0-.152.643c2.689,15.075,7.668,32.777,20.7,40.821a.88.88,0,0,0,.449.127.858.858,0,0,0,.449-.127c12.973-8.006,18.061-25.755,20.694-40.821A.834.834,0,0,0,579.5,222.218Zm-25.7,1a14.326,14.326,0,0,0-1.775,3.49,23.072,23.072,0,0,1-2.364-.829A13.027,13.027,0,0,1,553.8,223.214Zm-5.507,4.212a31.191,31.191,0,0,0,3.16,1.168,26.308,26.308,0,0,0-.752,5.46h-4.9A12.6,12.6,0,0,1,548.295,227.425Zm-2.488,8.587h4.9a27.292,27.292,0,0,0,.753,5.46,31.126,31.126,0,0,0-3.161,1.159A12.569,12.569,0,0,1,545.807,236.012Zm3.855,8.171a23.384,23.384,0,0,1,2.365-.823,14.321,14.321,0,0,0,1.774,3.491A12.69,12.69,0,0,1,549.662,244.184Zm7.862,3.366c-1.383-.55-2.679-2.216-3.6-4.688a21.433,21.433,0,0,1,3.6-.485Zm0-7.143a24.148,24.148,0,0,0-4.173.567,24.073,24.073,0,0,1-.679-4.961h4.851Zm0-6.353h-4.843a21.278,21.278,0,0,1,.682-4.96,24.123,24.123,0,0,0,4.161.566Zm0-6.364a21.494,21.494,0,0,1-3.6-.485c.917-2.472,2.213-4.138,3.6-4.688Zm9.866-1.769a22.473,22.473,0,0,1-2.4.828,14.342,14.342,0,0,0-1.793-3.538A12.821,12.821,0,0,1,567.389,225.92Zm-7.907-3.4c1.388.552,2.688,2.23,3.6,4.719a20.118,20.118,0,0,1-3.6.459Zm0,7.152a23.945,23.945,0,0,0,4.17-.54,21.646,21.646,0,0,1,.672,4.925h-4.842Zm0,6.344h4.851a24.612,24.612,0,0,1-.67,4.918,29.208,29.208,0,0,0-4.181-.534Zm0,11.531v-5.169a20.9,20.9,0,0,1,3.605.448C562.181,245.279,560.864,246.978,559.483,247.543Zm3.725-.692a14.319,14.319,0,0,0,1.786-3.539,22.9,22.9,0,0,1,2.4.833A12.894,12.894,0,0,1,563.207,246.851Zm5.542-4.261a30.445,30.445,0,0,0-3.183-1.167,27.206,27.206,0,0,0,.737-5.411h4.9A12.706,12.706,0,0,1,568.749,242.59Zm-2.447-8.537a26.251,26.251,0,0,0-.739-5.415,30.419,30.419,0,0,0,3.185-1.164,12.634,12.634,0,0,1,2.45,6.579Z" transform="translate(-537.342 -209.662)" fill="#d7d392"/></g><g transform="translate(45.493 21.138)"><path d="M764.277,326.7a.867.867,0,0,0-.7-.372H758.6c-.114.488-.227.98-.344,1.455-.738,3.057-1.579,5.977-2.5,8.672l-.011.03h4.442a.846.846,0,0,0,.787-.533l3.385-8.464A.864.864,0,0,0,764.277,326.7Z" transform="translate(-755.747 -326.331)" fill="#d7d392"/></g><g transform="translate(0 21.138)"><path d="M510.471,326.331H505.5a.846.846,0,0,0-.787,1.16l3.386,8.464a.846.846,0,0,0,.787.533h4.452A100.864,100.864,0,0,1,510.471,326.331Z" transform="translate(-504.658 -326.331)" fill="#d7d392"/></g><g transform="translate(41.996 32.988)"><path d="M736.449,398.5h2.776a.835.835,0,0,0,.8-.592l1.922-6.178h-2.589A65,65,0,0,1,736.449,398.5Z" transform="translate(-736.449 -391.732)" fill="#d7d392"/></g><g transform="translate(36.576 41.451)"><path d="M706.532,445.217h3.609a.834.834,0,0,0,.821-.66l1.4-6.111h-1.315A44.386,44.386,0,0,1,706.532,445.217Z" transform="translate(-706.532 -438.446)" fill="#d7d392"/></g><g transform="translate(11.761 41.451)"><path d="M569.568,438.446l1.4,6.111a.834.834,0,0,0,.821.66h3.641a44.659,44.659,0,0,1-4.5-6.771Z" transform="translate(-569.568 -438.446)" fill="#d7d392"/></g><g transform="translate(6.672 32.988)"><path d="M544.108,391.732h-2.626l1.909,6.178a.846.846,0,0,0,.813.592h2.82A65.753,65.753,0,0,1,544.108,391.732Z" transform="translate(-541.482 -391.732)" fill="#d7d392"/></g></g></g></svg>