<svg id="Layer_1" data-name="Layer 1" xmlns="http://www.w3.org/2000/svg" viewBox="0 0 83.93 52.93"><defs><style>.cls-1{fill:#d7d392;}</style></defs><path class="cls-1" d="M49.7,15.67l-1.6-1.34-.37-2.06a4.37,4.37,0,0,0-4.32-3.62H41.32L39.71,7.3a4.36,4.36,0,0,0-5.64,0l-1.6,1.35h-2.1a4.37,4.37,0,0,0-4.32,3.62l-.37,2.06-1.6,1.34a4.4,4.4,0,0,0-1,5.56L24.16,23l-.37,2.06a4.46,4.46,0,0,0,.37,2.69c.05.11.12.21.18.32a3.78,3.78,0,0,0,.22.33A4.38,4.38,0,0,0,26.61,30l2,.72,1.06,1.81a4.22,4.22,0,0,0,1.21,1.35,4.45,4.45,0,0,0,4.09.58l2-.71,2,.71a4.61,4.61,0,0,0,1.51.26.74.74,0,0,0,.26,0A4.27,4.27,0,0,0,43,33.87a4.84,4.84,0,0,0,1.2-1.35l1.05-1.81,2-.72a4.38,4.38,0,0,0,2-1.55l.22-.33c.06-.11.13-.21.18-.32A4.46,4.46,0,0,0,50,25.1L49.63,23l1-1.82a4.4,4.4,0,0,0-1-5.55ZM36.89,31.07A10.58,10.58,0,1,1,47.47,20.49,10.58,10.58,0,0,1,36.89,31.07Zm9.3,2.28A6.88,6.88,0,0,1,41,36.86a6.47,6.47,0,0,1-2.86-.38l-.8-.29L43.7,52.94l1.17-2.41a4.12,4.12,0,0,1,5.28-2l2.47,1L46.34,33.09ZM35.67,36.49a6.57,6.57,0,0,1-7.93-2.89l-.3-.52L21.16,49.53l2.48-1a4.12,4.12,0,0,1,5.28,2l1.16,2.41,6.4-16.74Zm1.22-24.07A8.07,8.07,0,1,0,45,20.49h0a8.07,8.07,0,0,0-8.07-8.07Zm0,15.07a7,7,0,1,1,7-7,7,7,0,0,1-7,7Zm.84-11.42.55,1.7a.89.89,0,0,0,.84.61H40.9a.87.87,0,0,1,.88.88.89.89,0,0,1-.36.71L40,21a.87.87,0,0,0-.32,1l.55,1.7a.88.88,0,0,1-.57,1.11.89.89,0,0,1-.79-.12L37.4,23.64a.86.86,0,0,0-1,0l-1.45,1.05a.88.88,0,0,1-1.35-1l.55-1.7a.87.87,0,0,0-.32-1L32.36,20a.88.88,0,0,1,.52-1.6h1.78a.88.88,0,0,0,.84-.6l.55-1.7a.88.88,0,0,1,1.1-.58.91.91,0,0,1,.58.58Zm12-.4-1.6-1.34-.37-2.07a4.38,4.38,0,0,0-4.31-3.62h-2.1L39.72,7.3a4.36,4.36,0,0,0-5.64,0L32.47,8.64h-2.1a4.38,4.38,0,0,0-4.32,3.62l-.37,2.07-1.6,1.34a4.39,4.39,0,0,0-1,5.55L24.16,23l-.37,2.06a4.46,4.46,0,0,0,.37,2.69c.05.11.12.2.18.31a4,4,0,0,0,.22.34A4.38,4.38,0,0,0,26.61,30l2,.72,1.06,1.81a4.09,4.09,0,0,0,1.21,1.34,4.43,4.43,0,0,0,4.09.59l2-.72,2,.72a4.61,4.61,0,0,0,1.51.26l.26,0A4.28,4.28,0,0,0,43,33.86a4.67,4.67,0,0,0,1.2-1.34l1.05-1.82,2-.71a4.38,4.38,0,0,0,2-1.55,4,4,0,0,0,.22-.34c.06-.11.13-.2.18-.31A4.46,4.46,0,0,0,50,25.1L49.63,23l1-1.82a4.4,4.4,0,0,0-1-5.55ZM36.89,31.06A10.58,10.58,0,1,1,47.47,20.48h0A10.6,10.6,0,0,1,36.89,31.07Zm9.3,2.28A6.83,6.83,0,0,1,41,36.85a6.49,6.49,0,0,1-2.86-.37l-.8-.29,6.4,16.74,1.16-2.41a4.12,4.12,0,0,1,5.28-2l2.47,1L46.34,33.08ZM35.67,36.49a6.57,6.57,0,0,1-7.93-2.89l-.3-.52L21.16,49.53l2.48-1a4.12,4.12,0,0,1,5.28,2l1.16,2.41,6.4-16.74Zm14-20.82-1.6-1.34-.37-2.06a4.38,4.38,0,0,0-4.31-3.63h-2.1L39.72,7.3a4.36,4.36,0,0,0-5.64,0L32.47,8.64h-2.1a4.39,4.39,0,0,0-4.32,3.63l-.37,2.06-1.6,1.34a4.4,4.4,0,0,0-1,5.56L24.16,23l-.37,2.06a4.46,4.46,0,0,0,.37,2.69,3.14,3.14,0,0,0,.18.31,4,4,0,0,0,.22.34A4.38,4.38,0,0,0,26.61,30l2,.72,1.06,1.81a4.09,4.09,0,0,0,1.21,1.34,4.43,4.43,0,0,0,4.09.59l2-.72,2,.72a4.61,4.61,0,0,0,1.51.26,1.1,1.1,0,0,0,.26,0A4.28,4.28,0,0,0,43,33.86a4.67,4.67,0,0,0,1.2-1.34l1.05-1.81,2-.72a4.38,4.38,0,0,0,2-1.55,4,4,0,0,0,.22-.34c.06-.11.13-.2.18-.31A4.46,4.46,0,0,0,50,25.1L49.63,23l1-1.82a4.4,4.4,0,0,0-1-5.55ZM36.89,31.07A10.58,10.58,0,1,1,47.47,20.49h0A10.6,10.6,0,0,1,36.89,31.07ZM60.46,9.44a6.09,6.09,0,1,0,6.09,6.09h0A6.09,6.09,0,0,0,60.46,9.44Zm0,11.37a5.28,5.28,0,1,1,5.28-5.28,5.28,5.28,0,0,1-5.28,5.28Zm.64-8.61.41,1.28a.67.67,0,0,0,.63.46h1.35a.67.67,0,0,1,.66.66.68.68,0,0,1-.27.54l-1.09.79a.66.66,0,0,0-.24.74L63,18a.65.65,0,0,1-.42.83.67.67,0,0,1-.6-.09l-1.09-.79a.66.66,0,0,0-.78,0L59,18.7A.67.67,0,0,1,58,18l.42-1.29a.66.66,0,0,0-.24-.74l-1.09-.79a.67.67,0,0,1-.15-.93.68.68,0,0,1,.54-.27h1.34a.68.68,0,0,0,.64-.46l.41-1.28a.66.66,0,0,1,.83-.44.69.69,0,0,1,.44.44ZM59.75,27.39l.61-.22L55.54,39.79,54.66,38a3.11,3.11,0,0,0-2.89-1.76l-1.29-3.36,3.07-8,.23.39a4.94,4.94,0,0,0,6,2.18Zm12.58,10-1.87-.77a3.1,3.1,0,0,0-4,1.52L65.6,40,60.78,27.37l.6.22a4.82,4.82,0,0,0,2.16.28,5.19,5.19,0,0,0,3.94-2.64l.11-.2Zm-9-11.39.19,0a3.18,3.18,0,0,0,1.76-.62,3.41,3.41,0,0,0,.91-1L67,23l1.48-.54A3.4,3.4,0,0,0,70,21.32a2.26,2.26,0,0,0,.16-.26c0-.08.1-.15.14-.23a3.4,3.4,0,0,0,.28-2l-.27-1.56.78-1.37a3.29,3.29,0,0,0-.73-4.18l-1.21-1-.28-1.55A3.29,3.29,0,0,0,65.6,6.38H64l-1.22-1a3.28,3.28,0,0,0-4.25,0l-1.21,1H55.76A3.3,3.3,0,0,0,52.5,9.12l-.27,1.55-1.21,1a3.19,3.19,0,0,0-1,1.4,4.9,4.9,0,0,1,.13.55l.2,1.13.88.74a4.48,4.48,0,0,1,1,5.69l-.38.66a3.35,3.35,0,0,0,1.06.63l1.48.54.79,1.37a3.17,3.17,0,0,0,.92,1,3.32,3.32,0,0,0,3.08.44l1.48-.54,1.48.54a3.41,3.41,0,0,0,1.13.2ZM52.49,15.53a8,8,0,1,1,8,8A8,8,0,0,1,52.49,15.53ZM13.71,8.88a6,6,0,1,0,6,6h0A6,6,0,0,0,13.71,8.88Zm0,11.18a5.19,5.19,0,1,1,5.19-5.19,5.19,5.19,0,0,1-5.19,5.19Zm.62-8.47.41,1.26a.65.65,0,0,0,.62.45h1.32a.65.65,0,0,1,.38,1.18L16,15.26a.66.66,0,0,0-.23.73l.41,1.26a.66.66,0,0,1-1,.73l-1.07-.78a.68.68,0,0,0-.77,0L12.26,18a.66.66,0,0,1-.92-.15.66.66,0,0,1-.09-.58L11.66,16a.65.65,0,0,0-.24-.73l-1.07-.78a.65.65,0,0,1,.39-1.18h1.32a.65.65,0,0,0,.62-.45l.41-1.26a.65.65,0,0,1,.81-.43.62.62,0,0,1,.43.43ZM12.8,26.72l.6-.21L8.66,38.92,7.8,37.13a3.05,3.05,0,0,0-3.91-1.49l-1.84.75L6.71,24.2l.22.39a4.85,4.85,0,0,0,5.87,2.13Zm3.48-1.31a.68.68,0,0,0,.2,0,3.21,3.21,0,0,0,1.73-.61,3.24,3.24,0,0,0,.88-1l.78-1.34,1.46-.53a3.18,3.18,0,0,0,1-.56l-.41-.71a4.41,4.41,0,0,1,1-5.59l.87-.73.2-1.11a4.39,4.39,0,0,1,.18-.69,3.29,3.29,0,0,0-.9-1.22L22,10.3l-.27-1.53a3.24,3.24,0,0,0-3.2-2.68H17l-1.19-1a3.24,3.24,0,0,0-4.18,0l-1.19,1H8.88a3.23,3.23,0,0,0-3.2,2.68L5.4,10.3l-1.18,1a3.25,3.25,0,0,0-.73,4.11l.78,1.35L4,18.28a3.35,3.35,0,0,0,.27,2c0,.08.09.15.14.23a2.13,2.13,0,0,0,.16.25,3.21,3.21,0,0,0,1.52,1.15l1.46.53.78,1.35a3,3,0,0,0,.9,1,3.28,3.28,0,0,0,3,.44l1.45-.53,1.46.53a3.5,3.5,0,0,0,1.11.19ZM5.87,14.86a7.84,7.84,0,1,1,7.84,7.84A7.84,7.84,0,0,1,5.87,14.86ZM19.62,37.13l-.86,1.79L14,26.5l.59.22a4.94,4.94,0,0,0,2.12.28,5.09,5.09,0,0,0,3.87-2.61l.11-.19,3,7.74L22.35,35.4a3.07,3.07,0,0,0-2.73,1.73Z"/></svg>