<svg xmlns="http://www.w3.org/2000/svg" width="22" height="22" viewBox="0 0 22 22"><path d="M19.643,2.25H2.357A2.357,2.357,0,0,0,0,4.607V21.893A2.357,2.357,0,0,0,2.357,24.25H19.643A2.357,2.357,0,0,0,22,21.893V4.607A2.357,2.357,0,0,0,19.643,2.25ZM4.616,21.107a.737.737,0,0,1-.718-.571l-.737-3.192a.737.737,0,0,1,.428-.843l3.437-1.473a.737.737,0,0,1,.86.211L9.409,17.1a11.385,11.385,0,0,0,5.44-5.44l-1.86-1.522a.737.737,0,0,1-.211-.86l1.473-3.437a.737.737,0,0,1,.843-.428l3.192.737a.736.736,0,0,1,.571.718A14.24,14.24,0,0,1,4.616,21.107Z" transform="translate(0 -2.25)" fill="#fff"/></svg>