<svg xmlns="http://www.w3.org/2000/svg" width="377.305" height="41.477" viewBox="0 0 377.305 41.477"><path d="M3.6,29.506h9.086c.118-4.6.354-5.251.767-5.664s1.062-.531,2.655-.531h6.549a3.231,3.231,0,0,1,2.242.531c.472.472.767,1.357.767,3.835,0,2.537-.3,3.658-.767,4.189-.354.354-.944.472-2.3.472H15.222V39.3h7.67c1.357,0,1.947.118,2.3.531.531.472.826,1.3.826,4.6,0,2.832-.236,3.894-.767,4.366-.413.472-1.121.59-2.36.59h-7.2c-1.593,0-2.183-.177-2.6-.59s-.649-1.062-.767-6.431H3.245c.118,7.847.826,10.738,2.773,12.685C7.493,56.528,9.617,57,13.039,57H26.373c3.245,0,5.192-.649,6.667-2.124,1.652-1.652,2.714-4.248,2.714-9.44,0-6.549-1.947-8.673-6.372-9.617V35.7c3.894-1.062,6.018-3.245,6.018-9.5,0-4.13-.826-6.726-2.6-8.555-1.357-1.357-3.127-1.947-6.49-1.947H13.393c-3.54,0-5.664.531-7.08,1.888C4.307,19.594,3.717,22.78,3.6,29.506Zm64.782,4.838V23.016h7.847c1.711,0,2.3.177,2.655.472.531.59.708,1.416.708,5.192s-.177,4.6-.708,5.192c-.354.295-.944.472-2.655.472ZM89.267,28.5c0-7.08-.885-9.145-2.655-10.915C85.2,16.113,83.131,15.7,79.945,15.7H54.221v7.375h4.956V49.566H54.221V57h19.47V49.566h-5.31V41.483H79.945c3.186,0,5.251-.413,6.667-1.888C88.382,37.825,89.267,35.819,89.267,28.5Zm8.26,21.063H92.571V57H126.2V42.132h-8.26v7.493h-11.21V23.075h5.251V15.7H92.571v7.375h4.956ZM145.848,57V49.684h-4.72l1.534-5.428h12.449l1.593,5.428h-4.72V57h18.644V49.566h-3.953L156.527,18.473c-.767-2.3-1.593-2.95-3.894-2.95h-6.667c-2.3,0-3.127.649-3.894,2.95L131.924,49.566h-4.012V57ZM148.5,23.783h.767l3.894,13.452h-8.555Zm44.073,25.783V22.957H199.3V30.8h7.788V15.7H168.858V30.8h7.788V22.957h6.726V49.566h-5.31V57h19.824V49.566Zm32.214,0V23.075h5.133V15.7H210.394v7.375h5.192V49.566h-5.192V57h19.529V49.566Zm39.176-7.2h-.59L251.93,18.178c-1-1.947-1.652-2.478-3.835-2.478h-14.75v7.375H238.3V49.566h-4.956V57h18.349V49.566h-4.956V28.385h.59l12.449,26.137c.944,1.947,1.593,2.478,3.835,2.478H272.4V23.075h4.838V15.7H259.187v7.375h4.779ZM307.98,23.075V41.07c0,5.723-.295,6.785-1,7.493-.59.59-1.652.767-4.838.767h-2.714c-3.3,0-4.366-.177-4.956-.767-.649-.649-1.062-1.829-1.062-7.493V23.075h4.838V15.7H279.306v7.375h4.838V40.126c0,9.794.767,12.272,3.009,14.514,1.829,1.829,4.366,2.36,9.735,2.36h7.375c5.369,0,7.965-.531,9.853-2.419,2.242-2.183,3.009-4.72,3.009-14.455V23.075h4.838V15.7H303.142v7.375Zm30.857,1.357,7.611,30.444c.413,1.711.944,2.124,2.478,2.124h6.549c1.593,0,2.065-.413,2.478-2.124l7.611-30.444h.826V49.566h-3.658V57H380.55V49.566h-4.956V23.075h4.956V15.7H361.611c-1.711,0-2.3.413-2.655,2.183l-5.841,26.255h-.708l-5.9-26.255c-.354-1.77-.944-2.183-2.655-2.183H324.618v7.375h4.956V49.566h-4.956V57h17.11V49.566h-3.717V24.432Z" transform="translate(-3.245 -15.523)" fill="#fff"/></svg>