<svg xmlns="http://www.w3.org/2000/svg" width="227.716" height="60.354" viewBox="0 0 227.716 60.354"><path d="M-14655.958,59.354c-6,0-8.7-.932-10.976-3.209-3.462-3.377-4.982-9.034-4.982-26.345,0-17.393,1.521-22.965,4.982-26.341,2.277-2.281,4.979-3.209,10.976-3.209h16.633c5.993,0,8.78.928,11.062,3.209,3.376,3.377,4.979,8.948,4.979,26.341,0,17.311-1.6,22.969-4.979,26.345-2.281,2.277-5.068,3.209-11.062,3.209Zm-.761-47.283c-.674.76-1.267,2.955-1.267,17.729s.593,16.972,1.267,17.647,1.521.928,4.3.928h9.541c2.873,0,3.634-.25,4.309-.928.76-.675,1.267-2.955,1.267-17.647,0-14.773-.507-16.968-1.267-17.729-.675-.593-1.436-.928-4.309-.928h-9.541C-14655.2,11.143-14656.044,11.479-14656.719,12.071Zm-53.953,47.283V48.881h11.735V11.9l-9.708,3.291-3.291-9.88L-14698,.168h11.989V48.881h10.809V59.354Zm-125.059-.253c-5.236,0-8.106-.757-10.134-2.784-2.783-2.788-3.63-7.431-3.8-14.859h13.085c.253,4.219.507,5.233,1.1,5.825.675.675,1.6.842,3.8.842h9.12c2.616,0,3.376-.421,3.969-1.014.761-.675,1.435-2.7,1.521-14.52-3.969,3.291-6.078,4.223-10.133,4.223h-7.935c-5.49,0-8.784-.846-11.062-3.127-2.873-2.784-3.8-6.921-3.8-14.352,0-9.455,1.268-13.256,4.055-16.212,1.942-1.942,5.065-3.123,9.962-3.123h17.308c5.572,0,8.192,1.014,10.387,3.295,3.463,3.377,5.065,8.78,5.065,26.256,0,16.886-1.774,22.8-5.15,26.092-2.449,2.449-5.318,3.459-11.229,3.459Zm.168-47.45c-.675.678-1.1,2.113-1.1,6.839,0,4.983.507,6.164,1.263,6.925.593.593,1.692.846,3.97.846h7.6a13.162,13.162,0,0,0,6.757-1.86c-.171-10.13-.678-11.818-1.353-12.578-.761-.76-1.774-1.1-4.219-1.1h-9.291C-14833.957,10.722-14834.889,10.976-14835.562,11.65Zm80.689,31.481c-.607-.607-.846-1.453-.846-3.343V29.5h-2.5V25.451h2.5V20.826h5.027v4.625h4.524V29.5h-4.524v9.008c0,.812.071,1.081.272,1.282.134.138.474.2,1.315.2h2.9v3.272l-1.923.473a15.23,15.23,0,0,1-3.478.4C-14753.355,44.141-14754.231,43.772-14754.873,43.131Zm-17.206.909a4.324,4.324,0,0,1-3.31-1.044c-.775-.779-1.077-1.755-1.077-4.457V29.5h-2.4V25.451h7.42V37.969a2.045,2.045,0,0,0,.406,1.517c.306.3.642.44,1.555.44h1.01a7.169,7.169,0,0,0,2.937-.779V29.465h-2.6V25.451h7.625V39.993h2.5v4.014h-7.524V41.543c-2.4,2.128-3.172,2.5-4.859,2.5Zm52.433-.034V39.993h2.5V29.5h-2.5V25.451h2.5V24.5c0-2.329.269-3.507,1.044-4.286s1.587-1.111,3.577-1.111h4.118v3.913h-2.4c-.674,0-.875.067-1.08.235-.168.2-.269.607-.269,1.521v.708h3.439V29.5h-3.406V39.993h2.6v4.014Zm-12.753,0c-1.89,0-2.87-.3-3.679-1.148-1.215-1.215-1.688-2.9-1.688-8.132,0-5.262.474-6.917,1.688-8.166.775-.809,1.789-1.111,3.679-1.111h6.037c1.89,0,2.9.3,3.712,1.111,1.215,1.248,1.655,2.9,1.655,8.166s-.44,6.917-1.655,8.132c-.809.846-1.822,1.148-3.712,1.148Zm.1-14.2c-.272.268-.406.943-.406,4.923s.134,4.625.406,4.927c.234.239.507.306,1.383.306h3.1c.875,0,1.147-.067,1.349-.306.272-.3.439-.943.439-4.927s-.167-4.655-.439-4.923c-.2-.239-.474-.339-1.349-.339h-3.1C-14731.792,29.465-14732.064,29.532-14732.3,29.8Zm-58.575,14.2c-1.89,0-2.87-.3-3.679-1.148-1.215-1.215-1.688-2.9-1.688-8.132,0-5.262.474-6.917,1.688-8.166.775-.809,1.789-1.111,3.679-1.111h6.037c1.89,0,2.9.3,3.712,1.111,1.216,1.248,1.655,2.9,1.655,8.166s-.439,6.917-1.655,8.132c-.809.846-1.822,1.148-3.712,1.148Zm.1-14.2c-.272.268-.406.943-.406,4.923s.134,4.625.406,4.927c.234.239.507.306,1.383.306h3.1c.876,0,1.147-.067,1.349-.306.269-.3.44-.943.44-4.927s-.172-4.655-.44-4.923c-.2-.239-.473-.339-1.349-.339h-3.1C-14790.267,29.465-14790.539,29.532-14790.773,29.8Z" transform="translate(14850.501 0.5)" fill="#276337" stroke="rgba(0,0,0,0)" stroke-miterlimit="10" stroke-width="1"/></svg>