<svg xmlns="http://www.w3.org/2000/svg" width="370.152" height="37.418" viewBox="0 0 370.152 37.418"><path d="M31.429,13.794H26.5c-2.014,0-3.021.636-3.392,2.7L17.755,42.785h-.636L13.3,20.525h4.24V13.9H1.06v6.625H4.717l5.936,27.931c.477,2.067,1.378,2.7,3.445,2.7H20.14c2.067,0,3.021-.689,3.392-2.756l4.823-23.479h.53L33.761,48.4c.371,2.067,1.325,2.756,3.392,2.756h5.989c2.067,0,2.968-.636,3.445-2.7l5.936-27.931H56.18V13.9H40.333v6.625h4.24l-3.816,22.26h-.583L34.821,16.5C34.45,14.43,33.443,13.794,31.429,13.794Zm35.086.106c-3.5,0-4.929.477-6.2,1.749-2.014,1.961-2.968,5.406-2.968,16.8,0,11.342.954,14.787,2.968,16.8,1.272,1.272,2.7,1.749,6.2,1.749H79.023c3.551,0,4.929-.477,6.2-1.749,2.014-2.014,2.968-5.459,2.968-16.8,0-11.4-.954-14.84-2.968-16.8-1.272-1.272-2.65-1.749-6.2-1.749Zm-.371,18.55c0-9.434.265-10.759.689-11.236.371-.318.795-.424,2.438-.424H76.32c1.59,0,2.067.106,2.385.424.477.477.689,1.8.689,11.236,0,9.381-.212,10.759-.689,11.183-.318.371-.795.477-2.385.477H69.271c-1.643,0-2.067-.106-2.438-.477C66.409,43.209,66.144,41.884,66.144,32.45Zm55.968,8.109c-.159-5.406-1.59-6.731-5.406-7.526v-.106c4.293-.742,5.936-2.173,5.936-8.745,0-5.088-.583-7-2.12-8.533-1.272-1.272-3.127-1.749-5.936-1.749h-23.9v6.625h4.452v23.8H90.683V51h17.278V44.322H103.4V35.9h5.83c1.855,0,2.6.212,3.286.848.583.636.848,1.431.954,4.293.212,6.784.636,8.162,1.431,8.957.636.636,1.431,1.007,3.657,1.007h7.632V44.269h-3.922C122.218,43.156,122.112,41.672,122.112,40.559ZM103.4,29.694V20.472h7.473c1.537,0,2.067.159,2.385.424.477.53.636,1.378.636,4.24s-.159,3.657-.636,4.134c-.318.318-.848.424-2.385.424Zm27.454,14.628H126.4V51h30.21V37.644H149.2v6.731h-10.07V20.525h4.717V13.9H126.4v6.625h4.452ZM178.239,13.9H157.675v6.625h4.452v23.8h-4.452V51h20.564c4.717,0,7.261-.742,9.275-2.756,2.385-2.385,3.6-6.625,3.6-15.794,0-9.222-1.219-13.409-3.6-15.794C185.5,14.589,182.956,13.9,178.239,13.9Zm-7.844,6.625h6.731c2.226,0,3.127.159,3.922.954.954.954,1.272,3.021,1.272,10.971S182,42.467,181.048,43.421c-.8.742-1.7.9-3.922.9h-6.731ZM227.37,51c3.286,0,5.141-.424,6.36-1.7,1.908-1.855,2.385-4.876,2.491-12.137h-8.215c-.159,5.194-.265,6.042-.689,6.466-.318.318-.742.477-2.279.477h-7.049c-1.643,0-2.067-.106-2.438-.477-.424-.424-.689-1.8-.689-11.183,0-9.434.265-10.759.689-11.236.371-.318.8-.424,2.438-.424h7.049c1.484,0,1.961.106,2.279.424.424.424.583,1.537.689,6.095h8.215c-.106-7-.636-9.964-2.491-11.819-1.166-1.166-3.021-1.59-6.307-1.59h-12.19c-3.5,0-4.929.477-6.2,1.749-2.014,1.961-2.968,5.406-2.968,16.8,0,11.342.954,14.787,2.968,16.8,1.272,1.272,2.7,1.749,6.2,1.749Zm15.582-6.678H238.5V51h30.21V37.644h-7.42v6.731H251.22V20.525h4.717V13.9H238.5v6.625h4.452ZM284.769,51V44.428h-4.24l1.378-4.876H293.09l1.431,4.876h-4.24V51h16.748V44.322h-3.551l-9.116-27.931c-.689-2.067-1.431-2.65-3.5-2.65h-5.989c-2.067,0-2.809.583-3.5,2.65l-9.116,27.931h-3.6V51Zm2.385-29.839h.689l3.5,12.084h-7.685Zm50.88,18.656c0-5.035-.583-7.314-2.014-8.745-1.113-1.113-2.6-1.59-5.141-1.855l-10.865-1.166c-1.643-.212-2.226-.265-2.544-.636-.477-.424-.53-1.113-.53-2.968,0-2.014.106-3.021.477-3.392.318-.318.848-.371,2.226-.371h6.89c1.484,0,1.961.106,2.279.424.371.371.53,1.166.636,4.5h8c-.106-6.519-.583-8.533-2.173-10.123-1.166-1.166-2.968-1.59-6.148-1.59h-12.4c-2.809,0-4.558.636-5.671,1.749-1.7,1.7-2.385,4.346-2.385,9.063,0,5.035.477,7.208,1.908,8.692,1.166,1.113,2.7,1.643,5.247,1.908l10.865,1.166c1.484.159,2.226.318,2.544.636.477.477.53,1.166.53,3.021,0,2.226-.106,3.233-.477,3.657-.371.318-1.007.424-2.544.424h-7.473c-1.59,0-2.12-.159-2.438-.477s-.477-1.166-.583-4.823H308.2c.053,6.625.583,8.9,2.12,10.441,1.272,1.219,3.074,1.643,6.2,1.643h13.356c2.968,0,4.664-.636,5.777-1.749C337.345,47.555,338.034,44.9,338.034,39.817Zm33.178,0c0-5.035-.583-7.314-2.014-8.745-1.113-1.113-2.6-1.59-5.141-1.855l-10.865-1.166c-1.643-.212-2.226-.265-2.544-.636-.477-.424-.53-1.113-.53-2.968,0-2.014.106-3.021.477-3.392.318-.318.848-.371,2.226-.371h6.89c1.484,0,1.961.106,2.279.424.371.371.53,1.166.636,4.5h8c-.106-6.519-.583-8.533-2.173-10.123-1.166-1.166-2.968-1.59-6.148-1.59h-12.4c-2.809,0-4.558.636-5.671,1.749-1.7,1.7-2.385,4.346-2.385,9.063,0,5.035.477,7.208,1.908,8.692,1.166,1.113,2.7,1.643,5.247,1.908l10.865,1.166c1.484.159,2.226.318,2.544.636.477.477.53,1.166.53,3.021,0,2.226-.106,3.233-.477,3.657-.371.318-1.007.424-2.544.424H352.45c-1.59,0-2.12-.159-2.438-.477s-.477-1.166-.583-4.823h-8.056c.053,6.625.583,8.9,2.12,10.441,1.272,1.219,3.074,1.643,6.2,1.643H363.05c2.968,0,4.664-.636,5.777-1.749C370.523,47.555,371.212,44.9,371.212,39.817Z" transform="translate(-1.06 -13.741)" fill="#fff"/></svg>