<svg xmlns="http://www.w3.org/2000/svg" width="151.29" height="63.09" viewBox="0 0 151.29 63.09"><path d="M151.66,74.84V22.91H138.88L124.03,28.4l3.51,10.53,10.35-3.51V74.84H125.38V86h37.8V74.84ZM200.26,23H180.1c-5.04,0-8.1.99-10.35,3.24-2.7,2.7-3.96,6.48-3.96,13.23,0,9.18,3.33,12.42,9.09,14.04v.18c-6.75,1.44-9.81,4.95-9.81,14.85,0,7.47,1.62,11.34,4.32,14.04,2.43,2.34,5.76,3.42,10.53,3.42h20.43c4.86,0,8.19-1.08,10.53-3.42,2.7-2.7,4.32-6.57,4.32-14.04,0-9.9-2.97-13.41-9.72-14.85v-.18c5.76-1.62,9.09-4.86,9.09-14.04,0-6.75-1.35-10.53-4.05-13.23C208.27,23.99,205.3,23,200.26,23ZM181.63,35.06c.54-.54,1.35-.99,3.78-.99h9.45c2.52,0,3.24.45,3.78.99.81.81,1.35,1.98,1.35,6.03,0,4.23-.63,5.67-1.35,6.48-.63.63-1.44.9-3.78.9h-9.45c-2.25,0-3.06-.27-3.69-.9-.81-.81-1.35-2.25-1.35-6.48C180.37,37.04,180.82,35.87,181.63,35.06Zm-.54,24.75c.63-.63,1.35-.9,3.87-.9H195.4c2.43,0,3.15.27,3.78.9.9.9,1.44,2.43,1.44,7.2s-.63,6.12-1.35,6.84-1.53.99-3.87.99H184.96c-2.43,0-3.24-.27-3.87-.99-.81-.72-1.35-2.07-1.35-6.84S180.28,60.71,181.09,59.81Zm38.43,11.88V86h13.95V71.69Zm0-35.19V50.81h13.95V36.5ZM263.8,74.84V22.91H251.02L236.17,28.4l3.51,10.53,10.35-3.51V74.84H237.52V86h37.8V74.84Z" transform="translate(-124.03 -22.91)" fill="#276337"/></svg>