<svg xmlns="http://www.w3.org/2000/svg" width="374.4" height="44.8" viewBox="0 0 374.4 44.8"><path d="M28.032,52.936V24.072h7.3v8.512h8.448V16.2H2.3V32.584h8.448V24.072h7.3V52.936h-5.76V61h21.5V52.936ZM57.664,16.2c-4.224,0-5.952.576-7.488,2.112C47.744,20.68,46.592,24.84,46.592,38.6c0,13.7,1.152,17.856,3.584,20.288C51.712,60.424,53.44,61,57.664,61h15.1c4.288,0,5.952-.576,7.488-2.112C82.688,56.456,83.84,52.3,83.84,38.6c0-13.76-1.152-17.92-3.584-20.288-1.536-1.536-3.2-2.112-7.488-2.112Zm-.448,22.4c0-11.392.32-12.992.832-13.568.448-.384.96-.512,2.944-.512H69.5c1.92,0,2.5.128,2.88.512.576.576.832,2.176.832,13.568,0,11.328-.256,12.992-.832,13.5-.384.448-.96.576-2.88.576H60.992c-1.984,0-2.5-.128-2.944-.576C57.536,51.592,57.216,49.992,57.216,38.6Zm44.864-2.176V24.136h8.512c1.856,0,2.5.192,2.88.512.576.64.768,1.536.768,5.632s-.192,4.992-.768,5.632c-.384.32-1.024.512-2.88.512Zm22.656-6.336c0-7.68-.96-9.92-2.88-11.84-1.536-1.6-3.776-2.048-7.232-2.048H86.72v8H92.1V52.936H86.72V61h21.12V52.936h-5.76V44.168h12.544c3.456,0,5.7-.448,7.232-2.048C123.776,40.2,124.736,38.024,124.736,30.088ZM152.384,16.2c-4.224,0-5.952.576-7.488,2.112-2.432,2.368-3.584,6.528-3.584,20.288,0,13.7,1.152,17.856,3.584,20.288C146.432,60.424,148.16,61,152.384,61h15.1c4.288,0,5.952-.576,7.488-2.112,2.432-2.432,3.584-6.592,3.584-20.288,0-13.76-1.152-17.92-3.584-20.288-1.536-1.536-3.2-2.112-7.488-2.112Zm-.448,22.4c0-11.392.32-12.992.832-13.568.448-.384.96-.512,2.944-.512h8.512c1.92,0,2.5.128,2.88.512.576.576.832,2.176.832,13.568,0,11.328-.256,12.992-.832,13.5-.384.448-.96.576-2.88.576h-8.512c-1.984,0-2.5-.128-2.944-.576C152.256,51.592,151.936,49.992,151.936,38.6Zm62.784,6.528h-.64l-12.416-26.24c-1.088-2.112-1.792-2.688-4.16-2.688h-16v8h5.376V52.936H181.5V61h19.9V52.936h-5.376V29.96h.64l13.5,28.352C211.2,60.424,211.9,61,214.336,61h9.536V24.2h5.248v-8H209.536v8h5.184Zm20.544,7.808h-5.376V61h36.48V44.872h-8.96V53h-12.16V24.2h5.7v-8H229.888v8h5.376Zm48,0V24.2h5.568v-8H267.648v8h5.632V52.936h-5.632V61h21.184V52.936Zm40.448-7.808h-.64l-12.416-26.24c-1.088-2.112-1.792-2.688-4.16-2.688h-16v8h5.376V52.936H290.5V61h19.9V52.936h-5.376V29.96h.64l13.5,28.352C320.192,60.424,320.9,61,323.328,61h9.536V24.2h5.248v-8H318.528v8h5.184ZM344.256,24.2V52.936H338.88V61H376.7V45.192h-8.96V53h-13.5V41.8h10.688V34.248H354.24V24.136h13.184v6.976h8.96V16.2h-37.5v8Z" transform="translate(-2.304 -16.2)" fill="#fff"/></svg>