<svg xmlns="http://www.w3.org/2000/svg" width="290.112" height="44.8" viewBox="0 0 290.112 44.8"><path d="M39.552,47.5c0-6.08-.7-8.832-2.432-10.56-1.344-1.344-3.136-1.92-6.208-2.24l-13.12-1.408c-1.984-.256-2.688-.32-3.072-.768-.576-.512-.64-1.344-.64-3.584,0-2.432.128-3.648.576-4.1.384-.384,1.024-.448,2.688-.448h8.32c1.792,0,2.368.128,2.752.512.448.448.64,1.408.768,5.44h9.664c-.128-7.872-.7-10.3-2.624-12.224C34.816,16.712,32.64,16.2,28.8,16.2H13.824c-3.392,0-5.5.768-6.848,2.112C4.928,20.36,4.1,23.56,4.1,29.256c0,6.08.576,8.7,2.3,10.5,1.408,1.344,3.264,1.984,6.336,2.3l13.12,1.408c1.792.192,2.688.384,3.072.768.576.576.64,1.408.64,3.648,0,2.688-.128,3.9-.576,4.416-.448.384-1.216.512-3.072.512H16.9c-1.92,0-2.56-.192-2.944-.576s-.576-1.408-.7-5.824H3.52c.064,8,.7,10.752,2.56,12.608C7.616,60.488,9.792,61,13.568,61H29.7c3.584,0,5.632-.768,6.976-2.112C38.72,56.84,39.552,53.64,39.552,47.5Zm33.28-23.3V43.72c0,6.208-.32,7.36-1.088,8.128-.64.64-1.792.832-5.248.832H63.552c-3.584,0-4.736-.192-5.376-.832-.7-.7-1.152-1.984-1.152-8.128V24.2h5.248v-8H41.728v8h5.248V42.7c0,10.624.832,13.312,3.264,15.744C52.224,60.424,54.976,61,60.8,61h8c5.824,0,8.64-.576,10.688-2.624,2.432-2.368,3.264-5.12,3.264-15.68V24.2H88v-8H67.584v8Zm31.36,12.224V24.136H112.7c1.856,0,2.5.192,2.88.512.576.64.768,1.536.768,5.632s-.192,4.992-.768,5.632c-.384.32-1.024.512-2.88.512Zm22.656-6.336c0-7.68-.96-9.92-2.88-11.84-1.536-1.6-3.776-2.048-7.232-2.048h-27.9v8h5.376V52.936H88.832V61h21.12V52.936h-5.76V44.168h12.544c3.456,0,5.7-.448,7.232-2.048C125.888,40.2,126.848,38.024,126.848,30.088Zm16.9,6.336V24.136h8.512c1.856,0,2.5.192,2.88.512.576.64.768,1.536.768,5.632s-.192,4.992-.768,5.632c-.384.32-1.024.512-2.88.512ZM166.4,30.088c0-7.68-.96-9.92-2.88-11.84-1.536-1.6-3.776-2.048-7.232-2.048h-27.9v8h5.376V52.936h-5.376V61H149.5V52.936h-5.76V44.168h12.544c3.456,0,5.7-.448,7.232-2.048C165.44,40.2,166.4,38.024,166.4,30.088ZM180.48,16.2c-4.224,0-5.952.576-7.488,2.112-2.432,2.368-3.584,6.528-3.584,20.288,0,13.7,1.152,17.856,3.584,20.288C174.528,60.424,176.256,61,180.48,61h15.1c4.288,0,5.952-.576,7.488-2.112,2.432-2.432,3.584-6.592,3.584-20.288,0-13.76-1.152-17.92-3.584-20.288-1.536-1.536-3.2-2.112-7.488-2.112Zm-.448,22.4c0-11.392.32-12.992.832-13.568.448-.384.96-.512,2.944-.512h8.512c1.92,0,2.5.128,2.88.512.576.576.832,2.176.832,13.568,0,11.328-.256,12.992-.832,13.5-.384.448-.96.576-2.88.576h-8.512c-1.984,0-2.5-.128-2.944-.576C180.352,51.592,180.032,49.992,180.032,38.6Zm67.456,9.792c-.192-6.528-1.92-8.128-6.528-9.088v-.128c5.184-.9,7.168-2.624,7.168-10.56,0-6.144-.7-8.448-2.56-10.3-1.536-1.536-3.776-2.112-7.168-2.112H209.536v8h5.376V52.936h-5.376V61H230.4V52.936h-5.5V42.76h7.04c2.24,0,3.136.256,3.968,1.024.7.768,1.024,1.728,1.152,5.184.256,8.192.768,9.856,1.728,10.816.768.768,1.728,1.216,4.416,1.216h9.216V52.872H247.68C247.616,51.528,247.488,49.736,247.488,48.392ZM224.9,35.272V24.136h9.024c1.856,0,2.5.192,2.88.512.576.64.768,1.664.768,5.12s-.192,4.416-.768,4.992c-.384.384-1.024.512-2.88.512Zm52.992,17.664V24.072h7.3v8.512h8.448V16.2H252.16V32.584h8.448V24.072h7.3V52.936h-5.76V61h21.5V52.936Z" transform="translate(-3.52 -16.2)" fill="#fff"/></svg>