<svg xmlns="http://www.w3.org/2000/svg" width="88.049" height="84.422" viewBox="0 0 88.049 84.422"><path d="M-14794.813,83.422c-5.821,0-8.445-.9-10.659-3.116-3.365-3.28-4.841-8.773-4.841-25.585,0-16.89,1.476-22.305,4.841-25.585,2.214-2.214,4.838-3.116,10.659-3.116h16.152c5.825,0,8.53.9,10.744,3.116,3.28,3.28,4.838,8.695,4.838,25.585,0,16.812-1.558,22.305-4.838,25.585-2.214,2.214-4.919,3.116-10.744,3.116Zm-.738-45.919c-.655.738-1.229,2.87-1.229,17.218s.574,16.484,1.229,17.14,1.477.9,4.182.9h9.266c2.787,0,3.525-.246,4.182-.9.737-.656,1.233-2.87,1.233-17.14,0-14.348-.5-16.48-1.233-17.218-.656-.574-1.395-.9-4.182-.9h-9.266C-14794.075,36.6-14794.9,36.929-14795.552,37.5Zm-53.219,45.919V73.255h11.4V37.339l-9.433,3.2-3.2-9.6,13.532-5h11.643V73.255h10.5V83.422Zm54.289-61.776v-3.9h2.6V3.865h-2.6V0H-14781c1.67,0,2.755.216,3.5.988.928.928,1.391,2.013,1.391,5.721,0,3.835-.463,4.886-1.391,5.814-.741.775-1.826.991-3.5.991h-6.06v4.234h2.784v3.9Zm7.42-11.874h4.114c.895,0,1.2-.093,1.391-.25.279-.309.372-.742.372-2.721s-.093-2.411-.372-2.721c-.187-.153-.5-.246-1.391-.246h-4.114Zm-21.828,11.874c-2.042,0-2.877-.28-3.619-1.021-1.174-1.174-1.729-3.186-1.729-9.8,0-6.649.555-8.657,1.729-9.8.742-.742,1.577-1.021,3.619-1.021h7.3c2.072,0,2.874.28,3.619,1.021,1.174,1.144,1.729,3.153,1.729,9.8,0,6.615-.556,8.628-1.729,9.8-.745.742-1.547,1.021-3.619,1.021Zm.187-17.378c-.25.28-.4,1.051-.4,6.556s.152,6.276.4,6.522c.216.216.462.28,1.42.28h4.114c.928,0,1.2-.063,1.39-.28.28-.246.4-1.051.4-6.522,0-5.5-.123-6.276-.4-6.556-.186-.186-.462-.246-1.39-.246h-4.114C-14808.241,4.021-14808.487,4.081-14808.7,4.267Zm-22.48,17.378v-3.9h2.784V3.8h-3.526V7.916h-4.08V0h20.035V7.916h-4.081V3.8h-3.525V17.747h2.784v3.9Z" transform="translate(14850.628 0.5)" fill="#276337" stroke="rgba(0,0,0,0)" stroke-miterlimit="10" stroke-width="1"/></svg>