<svg xmlns="http://www.w3.org/2000/svg" width="254.649" height="53.048" viewBox="0 0 254.649 53.048"><g transform="translate(-19.476 -58.476)"><g transform="translate(13.555 52.51)"><g transform="translate(6.445 6.49)"><path d="M32.453,58.49a26,26,0,1,1,25.99-26.01A26.038,26.038,0,0,1,32.453,58.49Zm0-51.017A25.018,25.018,0,1,0,57.46,32.48,25.045,25.045,0,0,0,32.453,7.472Z" transform="translate(-6.445 -6.49)" fill="#c7b758" stroke="#c7b758" stroke-miterlimit="10" stroke-width="1.048"/><path d="M32.186,6.715a25.509,25.509,0,1,0,25.5,25.5A25.555,25.555,0,0,0,32.186,6.715Z" transform="translate(-6.179 -6.224)" fill="#003c19" stroke="#003c19" stroke-miterlimit="10" stroke-width="0.468"/><path d="M31.688,7.13a24.6,24.6,0,1,0,24.586,24.6A24.639,24.639,0,0,0,31.688,7.13ZM47.118,48.766a2.808,2.808,0,0,1-2.292.07,1.96,1.96,0,0,1-1.085-1.531,4.9,4.9,0,0,1,.889-2.919,16.506,16.506,0,0,1,3.908-4.325c2.469-1.83,4.192-2.341,3.554-2.762-.445-.3-2.788.987-3.251,1.231-2.629,1.356-6.255,5.275-6.681,8.179-.334,2.286,2.292,3.919,4.085,3.3A22.6,22.6,0,0,1,31.7,55.22h-.02a22.588,22.588,0,0,1-14.563-5.207c1.795.616,4.423-1.017,4.085-3.3-.426-2.9-4.068-6.823-6.677-8.179-.463-.245-2.808-1.531-3.251-1.231-.64.421,1.081.932,3.552,2.762a16.3,16.3,0,0,1,3.888,4.325,4.753,4.753,0,0,1,.906,2.919,1.987,1.987,0,0,1-1.083,1.531,2.845,2.845,0,0,1-2.308-.07A6.587,6.587,0,0,1,13.3,46.32a23.984,23.984,0,0,1-3.819-7.05c.655,1.458,4.814,7.561,6.661,7.648,1.9.107-1.847-4.958-4.423-7.067a3.414,3.414,0,0,1-1.472-2.061.92.92,0,0,1,.921-1.177c1.031-.035,3.714,1.354,3.747,1.3-4.653-8.351,2.469-12.572-.478-14.4-1.033-.653-3.214,0-4.406.175,10.96-6.471,12.877-.017,16.181,2.954.515.476,2.843,0,3.286-.546.587-.7,1.758-3.236.426-4.906-1.915-2.426-9.875-9.585-17.122-3.253,3.515-5.694,11.72-9.893,18.9-9.692,7.179-.2,15.329,4,18.864,9.692-7.266-6.332-15.2.827-17.141,3.253-1.314,1.67-.159,4.2.428,4.906.461.546,2.786,1.022,3.3.546,3.3-2.971,5.222-9.425,16.178-2.954-1.188-.175-3.391-.827-4.4-.175-2.952,1.83,4.153,6.05-.483,14.4.037.052,2.72-1.336,3.749-1.3a.924.924,0,0,1,.924,1.177,3.5,3.5,0,0,1-1.474,2.061c-2.576,2.109-6.323,7.174-4.441,7.067,1.865-.087,6.022-6.19,6.679-7.648a24.245,24.245,0,0,1-3.821,7.05A6.516,6.516,0,0,1,47.118,48.766ZM34.391,45.993a26.158,26.158,0,0,1-2.661.282,26.133,26.133,0,0,1-2.664-.282.337.337,0,0,0-.249.087c-.52,1.113,2.472,1.727,2.9,1.707.432.02,3.441-.594,2.921-1.707A.342.342,0,0,0,34.391,45.993Zm-2.655-9.74v0H31.7v0c-.841.017-1.295.729-2.076,1.546-1.354,1.476-4.133,5.15-2.111,6.893a3.666,3.666,0,0,0,3.694.808c.4-.279.175-1.107-.035-1.478-.758-.982-1.934-.6-2.268-1.087a.841.841,0,0,1,.087-1.089c.282-.352.738-.266,1.124-.159a3.127,3.127,0,0,1,1.585.862v.033l.015-.015.017.015v-.033a3.036,3.036,0,0,1,1.583-.862c.369-.107.845-.192,1.109.159a.823.823,0,0,1,.087,1.089c-.334.491-1.493.1-2.251,1.087-.21.371-.458,1.2-.055,1.478a3.654,3.654,0,0,0,3.694-.808c2.041-1.742-.738-5.417-2.111-6.893C33.031,36.982,32.557,36.271,31.736,36.253ZM49,30.216c-.122-1.017-1.017-1.334-1.808-1.583-2.288-.718-3.255.177-3.923.249.72-.825.544-2.2-.4-2.358-1.777-.282-1.284,1.637-.862,2.533.282.563.633,1.5,1.513,1.424,1.072-.087.913-.967,2.463-1.089,0,0,1.932.142,1.9.758-.072.915-1.074,1.247-1.725,1.476-.967.317-2.076-.157-2.867.74a1.213,1.213,0,0,0-.354,1c.09.336.127.194,1.2.282a4.923,4.923,0,0,0-.965,2.851c-.035,2.655-.7,4.712-.441,5.629,1.286-1.55,1.266-3.886,1.478-5.753a6.722,6.722,0,0,1,.95-2.742c.546-.827,1.585-.865,2.268-1.371C48.074,31.784,49.094,30.974,49,30.216ZM20.728,26.524c-.932.159-1.107,1.533-.406,2.358-.648-.072-1.616-.967-3.9-.249-.788.249-1.688.565-1.81,1.583-.09.758.932,1.568,1.583,2.044.668.507,1.723.544,2.268,1.371a7.058,7.058,0,0,1,.95,2.742c.212,1.867.177,4.2,1.478,5.753.245-.917-.424-2.974-.439-5.629a5.1,5.1,0,0,0-.967-2.851c1.07-.087,1.087.055,1.177-.282a1.154,1.154,0,0,0-.354-1c-.773-.9-1.88-.424-2.867-.74-.648-.229-1.651-.561-1.7-1.476-.035-.616,1.9-.758,1.9-.758,1.546.122,1.369,1,2.443,1.089.88.072,1.249-.86,1.531-1.424C22.032,28.162,22.521,26.243,20.728,26.524Zm6.858,11.325c.723-1.1,1.48-3.517,1.039-4.535a4.574,4.574,0,0,1-2.059-1.6c-.511-.738-.808-1.563-1.705-1.81a2.243,2.243,0,0,0-1.76.177c-.79.456-.982,1.546-1.107,2.406a15.178,15.178,0,0,0,1.055,6.05,26.9,26.9,0,0,0,2.83,5.19C25.512,40.681,27.2,38.677,27.586,37.849ZM25.263,33.93c-.352-.616-1.247-.493-1.67-.74a1.227,1.227,0,0,1-.015-1.969c.827-.758,2.971,1.67,2.5,3.57C25.863,34.86,25.759,34.738,25.263,33.93Zm14.984-3.851a2.233,2.233,0,0,0-1.755-.177c-.9.247-1.181,1.072-1.71,1.81a4.535,4.535,0,0,1-2.057,1.6c-.441,1.017.319,3.43,1.039,4.535.4.827,2.072,2.832,1.723,5.875a25.741,25.741,0,0,0,2.812-5.19,14.88,14.88,0,0,0,1.057-6.05A3.1,3.1,0,0,0,40.247,30.079Zm-.491,3.111c-.4.247-1.3.124-1.67.74-.491.808-.6.93-.808.86-.474-1.9,1.668-4.327,2.5-3.57A1.215,1.215,0,0,1,39.756,33.19Z" transform="translate(-5.683 -5.733)" fill="#fff"/><g transform="translate(7.118 2.506)"><path d="M40.81,26.771a22.6,22.6,0,0,1-14.545,5.207h-.02a22.588,22.588,0,0,1-14.563-5.207" transform="translate(-7.366 15.003)" fill="none" stroke="#fff" stroke-miterlimit="10" stroke-width="0.187"/><path d="M9.7,17.336c3.515-5.694,11.72-9.893,18.9-9.692,7.179-.2,15.329,4,18.864,9.692" transform="translate(-9.705 -7.638)" fill="none" stroke="#fff" stroke-miterlimit="10" stroke-width="0.187"/></g></g><g transform="translate(68.742 17.449)"><path d="M52.691,15.011H42.2c-4.657,0-7.221,2.326-7.221,6.555V40.1c0,4.229,2.565,6.56,7.221,6.56H52.691c4.662,0,7.226-2.331,7.226-6.56v-4.92H52.964v4.622c0,.432-.084.895-1.113.895H42.995c-.934,0-1.064-.432-1.064-.895V21.865c0-.467.129-.89,1.064-.89h8.857c1.029,0,1.113.457,1.113.89v4.622h6.953v-4.92C59.917,17.337,57.353,15.011,52.691,15.011Z" transform="translate(-34.978 -15.011)" fill="#fff"/><path d="M105.665,28.5l-8.7-1.73c-1.541-.323-1.67-.621-1.67-1.451V21.78c0-.452.084-.934,1.108-.934h8.106c.89,0,1.069.373,1.069.934v3.658h6.859V21.566c0-4.229-2.569-6.555-7.221-6.555H95.561c-4.657,0-7.221,2.326-7.221,6.555v4.468c0,4.6,3.5,5.949,7.276,6.714l8.707,1.774c1.511.313,1.675.567,1.675,1.411v3.956c0,.562-.184.939-1.069.939H96.167c-.885,0-1.064-.378-1.064-.939v-4H88.245V40.1c0,4.229,2.565,6.56,7.221,6.56h10.258c4.657,0,7.221-2.331,7.221-6.56v-4.89C112.946,30.6,109.452,29.255,105.665,28.5Z" transform="translate(-58.436 -15.011)" fill="#fff"/><path d="M137.876,39.806c0,.462-.129.895-1.064.895h-9.279c-.979,0-1.113-.432-1.113-.895v-24.8h-6.948V40.1c0,4.229,2.565,6.56,7.221,6.56h10.914c4.657,0,7.221-2.331,7.221-6.56V15.011h-6.953Z" transform="translate(-59.179 -15.011)" fill="#fff"/></g></g><rect width="1" height="47" transform="translate(179 61)" fill="#fff"/><path d="M9.55.3c4.925,0,8.275-3.7,8.275-8.625S14.475-16.95,9.55-16.95c-4.95,0-8.275,3.7-8.275,8.625S4.6.3,9.55.3Zm0-1.85c-3.75,0-6.125-2.9-6.125-6.775,0-3.9,2.375-6.775,6.125-6.775,3.725,0,6.125,2.875,6.125,6.775C15.675-4.45,13.275-1.55,9.55-1.55ZM34.875,0V-16.675H32.8V-3.65L23.2-16.675H21.075V0H23.15V-13.3L32.875,0ZM48.6,0V-1.85H40.85V-16.675H38.775V0Zm5,0V-16.675H51.525V0ZM71.3,0V-16.675H69.225V-3.65l-9.6-13.025H57.5V0h2.075V-13.3L69.3,0ZM86.125,0V-1.85h-8.85V-7.6H85.95V-9.45H77.275v-5.375h8.85v-1.85H75.2V0Z" transform="translate(188 93)" fill="#fff"/></g></svg>