<svg xmlns="http://www.w3.org/2000/svg" width="636.099" height="69.009" viewBox="0 0 636.099 69.009">
  <g id="logo_CSU_desktop" transform="translate(-139.475 -84.476)">
    <g id="Group_94" data-name="Group 94" transform="translate(140 85)">
      <g id="Group_6" data-name="Group 6" transform="translate(0 0)">
        <g id="Group_4" data-name="Group 4">
          <path id="Path_9" data-name="Path 9" d="M40.435,74.451A33.98,33.98,0,1,1,74.4,40.458,34.031,34.031,0,0,1,40.435,74.451Zm0-66.677A32.7,32.7,0,1,0,73.119,40.458,32.732,32.732,0,0,0,40.435,7.774Z" transform="translate(-6.445 -6.49)" fill="#c7b758" stroke="#c7b758" stroke-miterlimit="10" stroke-width="1.048"/>
          <path id="Path_10" data-name="Path 10" d="M40.018,6.715A33.338,33.338,0,1,0,73.344,40.041,33.4,33.4,0,0,0,40.018,6.715Z" transform="translate(-6.028 -6.073)" fill="#003c19" stroke="#003c19" stroke-miterlimit="10" stroke-width="0.468"/>
          <path id="Path_11" data-name="Path 11" d="M39.239,7.13A32.154,32.154,0,1,0,71.372,39.283,32.2,32.2,0,0,0,39.239,7.13ZM59.4,61.545a3.67,3.67,0,0,1-3,.091,2.561,2.561,0,0,1-1.418-2,6.4,6.4,0,0,1,1.161-3.815,21.573,21.573,0,0,1,5.108-5.653c3.227-2.391,5.479-3.059,4.645-3.61-.582-.391-3.644,1.29-4.249,1.609-3.436,1.772-8.175,6.894-8.732,10.689-.437,2.988,3,5.122,5.339,4.317a29.531,29.531,0,0,1-19.01,6.806h-.026a29.521,29.521,0,0,1-19.033-6.806c2.346.8,5.781-1.33,5.339-4.317-.556-3.8-5.316-8.917-8.726-10.689-.6-.32-3.67-2-4.249-1.609-.836.551,1.412,1.218,4.643,3.61a21.309,21.309,0,0,1,5.082,5.653,6.211,6.211,0,0,1,1.184,3.815,2.6,2.6,0,0,1-1.415,2,3.719,3.719,0,0,1-3.016-.091,8.609,8.609,0,0,1-3.832-3.2,31.346,31.346,0,0,1-4.991-9.214c.856,1.906,6.292,9.882,8.706,10,2.483.14-2.414-6.48-5.781-9.237A4.462,4.462,0,0,1,11.215,47.2a1.2,1.2,0,0,1,1.2-1.538c1.347-.046,4.854,1.769,4.9,1.7-6.081-10.914,3.227-16.43-.625-18.821-1.35-.853-4.2,0-5.758.228,14.324-8.458,16.83-.023,21.147,3.861.673.622,3.715,0,4.294-.713.768-.919,2.3-4.229.556-6.412-2.5-3.17-12.906-12.527-22.377-4.252,4.594-7.442,15.317-12.929,24.7-12.666,9.382-.263,20.034,5.225,24.654,12.666-9.5-8.275-19.871,1.081-22.4,4.252-1.718,2.183-.208,5.493.559,6.412.6.713,3.641,1.335,4.317.713,4.317-3.884,6.825-12.318,21.144-3.861-1.552-.228-4.431-1.081-5.753-.228-3.858,2.391,5.427,7.907-.631,18.821.049.068,3.555-1.746,4.9-1.7A1.208,1.208,0,0,1,67.248,47.2a4.57,4.57,0,0,1-1.926,2.694c-3.367,2.756-8.264,9.376-5.8,9.237,2.437-.114,7.87-8.09,8.729-10a31.686,31.686,0,0,1-4.994,9.214A8.516,8.516,0,0,1,59.4,61.545ZM42.771,57.922a34.185,34.185,0,0,1-3.478.368,34.153,34.153,0,0,1-3.481-.368.44.44,0,0,0-.325.114c-.679,1.455,3.23,2.257,3.792,2.231.565.026,4.5-.776,3.818-2.231A.447.447,0,0,0,42.771,57.922ZM39.3,45.192v0h-.043v0c-1.1.023-1.692.953-2.714,2.02-1.769,1.929-5.4,6.731-2.759,9.008a4.791,4.791,0,0,0,4.828,1.056c.528-.365.228-1.447-.046-1.932-.99-1.284-2.528-.779-2.965-1.421a1.1,1.1,0,0,1,.114-1.424c.368-.459.964-.348,1.47-.208a4.086,4.086,0,0,1,2.072,1.127v.043l.02-.02.023.02v-.043a3.968,3.968,0,0,1,2.069-1.127c.482-.14,1.1-.251,1.45.208a1.076,1.076,0,0,1,.114,1.424c-.437.642-1.952.137-2.942,1.421-.274.485-.6,1.567-.071,1.932a4.776,4.776,0,0,0,4.828-1.056c2.668-2.277-.964-7.079-2.759-9.008C40.994,46.145,40.375,45.215,39.3,45.192ZM61.87,37.3c-.16-1.33-1.33-1.743-2.363-2.069-2.99-.939-4.254.231-5.128.325.942-1.079.711-2.873-.528-3.082-2.323-.368-1.678,2.14-1.127,3.31.368.736.828,1.955,1.977,1.86,1.4-.114,1.193-1.264,3.219-1.424,0,0,2.525.185,2.483.99-.094,1.2-1.4,1.629-2.254,1.929-1.264.414-2.714-.205-3.747.967a1.586,1.586,0,0,0-.462,1.307c.117.439.165.254,1.564.368a6.434,6.434,0,0,0-1.261,3.727c-.046,3.47-.919,6.158-.576,7.356,1.681-2.026,1.655-5.079,1.932-7.519a8.785,8.785,0,0,1,1.241-3.584c.713-1.081,2.072-1.13,2.965-1.792C60.654,39.351,61.987,38.293,61.87,37.3ZM24.915,32.477c-1.218.208-1.447,2-.531,3.082-.847-.094-2.112-1.264-5.1-.325-1.03.325-2.206.739-2.366,2.069-.117.99,1.218,2.049,2.069,2.671.873.662,2.251.711,2.965,1.792a9.225,9.225,0,0,1,1.241,3.584c.277,2.44.231,5.493,1.932,7.519.32-1.2-.554-3.886-.574-7.356a6.667,6.667,0,0,0-1.264-3.727c1.4-.114,1.421.071,1.538-.368a1.508,1.508,0,0,0-.462-1.307c-1.01-1.173-2.457-.554-3.747-.967-.847-.3-2.157-.733-2.226-1.929-.046-.8,2.483-.99,2.483-.99,2.02.16,1.789,1.31,3.193,1.424,1.15.094,1.632-1.124,2-1.86C26.618,34.617,27.257,32.109,24.915,32.477Zm8.963,14.8c.944-1.444,1.935-4.6,1.358-5.927a5.978,5.978,0,0,1-2.691-2.094c-.668-.964-1.056-2.043-2.229-2.366a2.931,2.931,0,0,0-2.3.231c-1.033.6-1.284,2.02-1.447,3.145a19.836,19.836,0,0,0,1.378,7.907,35.159,35.159,0,0,0,3.7,6.783C31.166,50.979,33.372,48.36,33.877,47.278Zm-3.036-5.122c-.459-.8-1.629-.645-2.183-.967a1.6,1.6,0,0,1-.02-2.574c1.081-.99,3.884,2.183,3.264,4.665C31.626,43.372,31.489,43.212,30.841,42.156Zm19.583-5.033a2.918,2.918,0,0,0-2.294-.231c-1.173.322-1.544,1.4-2.234,2.366a5.926,5.926,0,0,1-2.688,2.094c-.576,1.33.417,4.483,1.358,5.927.528,1.081,2.708,3.7,2.251,7.679a33.642,33.642,0,0,0,3.675-6.783,19.447,19.447,0,0,0,1.381-7.907C51.737,39.143,51.46,37.719,50.424,37.123Zm-.642,4.066c-.528.322-1.7.163-2.183.967-.642,1.056-.782,1.216-1.056,1.124-.619-2.483,2.18-5.656,3.262-4.665A1.588,1.588,0,0,1,49.782,41.189Z" transform="translate(-5.251 -5.304)" fill="#fff"/>
        </g>
        <g id="Group_5" data-name="Group 5" transform="translate(9.302 3.275)">
          <path id="Path_12" data-name="Path 12" d="M49.75,26.771a29.531,29.531,0,0,1-19.01,6.805h-.026a29.521,29.521,0,0,1-19.033-6.805" transform="translate(-6.041 27.825)" fill="none" stroke="#fff" stroke-miterlimit="10" stroke-width="0.187"/>
          <path id="Path_13" data-name="Path 13" d="M9.7,20.313C14.3,12.872,25.022,7.384,34.4,7.647c9.382-.263,20.034,5.225,24.654,12.666" transform="translate(-9.705 -7.638)" fill="none" stroke="#fff" stroke-miterlimit="10" stroke-width="0.187"/>
        </g>
      </g>
      <g id="Group_7" data-name="Group 7" transform="translate(81.418 24.313)">
        <path id="Path_14" data-name="Path 14" d="M45.148,15.011H39.124c-2.674,0-4.146,1.335-4.146,3.764V29.418c0,2.428,1.472,3.767,4.146,3.767h6.024c2.677,0,4.149-1.338,4.149-3.767V26.593H45.3v2.654c0,.248-.049.514-.639.514H39.581c-.536,0-.611-.248-.611-.514v-10.3c0-.268.074-.511.611-.511h5.085c.591,0,.639.263.639.511V21.6H49.3V18.775C49.3,16.346,47.824,15.011,45.148,15.011Z" transform="translate(-34.978 -15.01)" fill="#fff"/>
        <path id="Path_15" data-name="Path 15" d="M51.866,15.011H45.491c-2.674,0-4.146,1.335-4.146,3.764V29.418c0,2.428,1.472,3.767,4.146,3.767h6.375c2.674,0,4.146-1.338,4.146-3.767V18.775C56.012,16.346,54.539,15.011,51.866,15.011Zm.157,3.935v10.3c0,.248-.051.514-.639.514H45.95c-.539,0-.613-.248-.613-.514v-10.3c0-.268.074-.511.613-.511h5.433C51.971,18.435,52.023,18.7,52.023,18.946Z" transform="translate(-23.177 -15.01)" fill="#fff"/>
        <path id="Path_16" data-name="Path 16" d="M51.835,15.011H47.844V33.185H60.333V29.761h-8.5Z" transform="translate(-11.131 -15.011)" fill="#fff"/>
        <path id="Path_17" data-name="Path 17" d="M63.756,15.011H57.381c-2.674,0-4.146,1.335-4.146,3.764V29.418c0,2.428,1.472,3.767,4.146,3.767h6.375c2.674,0,4.146-1.338,4.146-3.767V18.775C67.9,16.346,66.429,15.011,63.756,15.011Zm.157,3.935v10.3c0,.248-.051.514-.639.514H57.84c-.539,0-.613-.248-.613-.514v-10.3c0-.268.074-.511.613-.511h5.433C63.861,18.435,63.913,18.7,63.913,18.946Z" transform="translate(-1.139 -15.01)" fill="#fff"/>
        <path id="Path_18" data-name="Path 18" d="M73.919,22.7V18.775c0-2.428-1.472-3.764-4.146-3.764H59.734V33.185h3.992V26.462h3.2l3.47,6.723h4.357l-3.575-6.874A3.4,3.4,0,0,0,73.919,22.7ZM63.726,18.409h5.587c.539,0,.613.245.613.514V22.6c0,.265-.074.514-.613.514H63.726Z" transform="translate(10.906 -15.01)" fill="#fff"/>
        <path id="Path_19" data-name="Path 19" d="M72.556,15.011,65.873,33.185h4.212l1.452-4.306H77.82l1.45,4.306h4.374L76.933,15.011Zm4.118,10.447H72.681l2-5.921Z" transform="translate(22.285 -15.01)" fill="#fff"/>
        <path id="Path_20" data-name="Path 20" d="M83.439,15.011H73.184V33.185H83.439c2.671,0,4.143-1.338,4.143-3.767V18.775C87.583,16.346,86.11,15.011,83.439,15.011Zm-6.263,3.424h5.8c.536,0,.613.243.613.511v10.3c0,.265-.077.514-.613.514h-5.8Z" transform="translate(35.835 -15.01)" fill="#fff"/>
        <path id="Path_21" data-name="Path 21" d="M90.082,15.011H83.707c-2.674,0-4.146,1.335-4.146,3.764V29.418c0,2.428,1.472,3.767,4.146,3.767h6.375c2.677,0,4.149-1.338,4.149-3.767V18.775C94.231,16.346,92.758,15.011,90.082,15.011Zm.157,3.935v10.3c0,.265-.077.514-.639.514H84.166c-.539,0-.613-.248-.613-.514v-10.3c0-.268.074-.511.613-.511H89.6C90.19,18.435,90.239,18.7,90.239,18.946Z" transform="translate(47.655 -15.01)" fill="#fff"/>
        <path id="Path_22" data-name="Path 22" d="M98.246,22.755l-5-.993c-.885-.185-.959-.357-.959-.833V18.9c0-.26.049-.536.636-.536h4.654c.511,0,.613.214.613.536V21h3.938V18.775c0-2.428-1.475-3.764-4.146-3.764H92.445c-2.674,0-4.146,1.335-4.146,3.764V21.34c0,2.642,2.009,3.416,4.177,3.855l5,1.019c.867.18.962.325.962.81V29.3c0,.322-.106.539-.613.539H92.793c-.508,0-.611-.217-.611-.539V27H88.245v2.417c0,2.428,1.472,3.767,4.146,3.767h5.89c2.674,0,4.146-1.338,4.146-3.767V26.61C102.427,23.959,100.421,23.189,98.246,22.755Z" transform="translate(63.75 -15.01)" fill="#fff"/>
        <path id="Path_23" data-name="Path 23" d="M108.765,15.011H94.179v3.4h5.3V33.185h3.991V18.409h5.3Z" transform="translate(74.749 -15.011)" fill="#fff"/>
        <path id="Path_24" data-name="Path 24" d="M105.774,15.011l-6.68,18.174H103.3l1.452-4.306h6.28l1.455,4.306h4.372l-6.711-18.174Zm4.118,10.447H105.9l2-5.921Z" transform="translate(83.858 -15.01)" fill="#fff"/>
        <path id="Path_25" data-name="Path 25" d="M105.1,18.409h5.3V33.185h3.991V18.409h5.3v-3.4H105.1Z" transform="translate(94.999 -15.011)" fill="#fff"/>
        <path id="Path_26" data-name="Path 26" d="M111.2,33.185H124.36V29.761h-9.17V25.592h7.558V22.217H115.19V18.434h9.17V15.011H111.2Z" transform="translate(106.294 -15.011)" fill="#fff"/>
        <path id="Path_27" data-name="Path 27" d="M130.038,29.247c0,.265-.074.514-.611.514H124.1c-.562,0-.639-.248-.639-.514V15.011h-3.989V29.418c0,2.428,1.472,3.767,4.146,3.767h6.266c2.674,0,4.146-1.338,4.146-3.767V15.011h-3.992Z" transform="translate(121.628 -15.01)" fill="#fff"/>
        <path id="Path_28" data-name="Path 28" d="M137.47,26.652l-7.559-11.641h-3.978V33.185h3.776V21.2l7.8,11.984h3.763V15.011h-3.8Z" transform="translate(133.603 -15.011)" fill="#fff"/>
        <rect id="Rectangle_5" data-name="Rectangle 5" width="3.991" height="18.174" transform="translate(278.753)" fill="#fff"/>
        <path id="Path_29" data-name="Path 29" d="M143.665,28.331l-4.157-13.321h-4.342l6.316,18.174h4.282l6.318-18.174h-4.236Z" transform="translate(150.714 -15.011)" fill="#fff"/>
        <path id="Path_30" data-name="Path 30" d="M142.181,33.185h13.161V29.761h-9.17V25.592h7.558V22.217h-7.558V18.434h9.17V15.011H142.181Z" transform="translate(163.718 -15.011)" fill="#fff"/>
        <path id="Path_31" data-name="Path 31" d="M162.28,22.7V18.775c0-2.428-1.472-3.764-4.149-3.764H148.1V33.185h3.992V26.462h3.2l3.467,6.723h4.36l-3.575-6.874A3.4,3.4,0,0,0,162.28,22.7Zm-10.193-4.286h5.587c.539,0,.614.245.614.514V22.6c0,.265-.074.514-.614.514h-5.587Z" transform="translate(174.679 -15.01)" fill="#fff"/>
        <path id="Path_32" data-name="Path 32" d="M164.343,22.755l-5-.993c-.885-.185-.962-.357-.962-.833V18.9c0-.26.051-.536.639-.536h4.654c.508,0,.613.214.613.536V21h3.935V18.775c0-2.428-1.472-3.764-4.146-3.764h-5.539c-2.674,0-4.146,1.335-4.146,3.764V21.34c0,2.642,2.009,3.416,4.178,3.855l5,1.019c.865.18.962.325.962.81V29.3c0,.322-.106.539-.613.539H158.89c-.508,0-.614-.217-.614-.539V27h-3.938v2.417c0,2.428,1.472,3.767,4.149,3.767h5.89c2.674,0,4.146-1.338,4.146-3.767V26.61C168.523,23.959,166.515,23.189,164.343,22.755Z" transform="translate(186.252 -15.01)" fill="#fff"/>
        <rect id="Rectangle_6" data-name="Rectangle 6" width="3.991" height="18.174" transform="translate(358.522)" fill="#fff"/>
        <path id="Path_33" data-name="Path 33" d="M162.987,18.409h5.3V33.185h3.991V18.409h5.3v-3.4H162.987Z" transform="translate(202.281 -15.011)" fill="#fff"/>
        <path id="Path_34" data-name="Path 34" d="M181.427,15.011,177.193,22.9l-4.236-7.893h-4.376l6.59,11.8v6.376h3.988V26.809l6.59-11.8Z" transform="translate(212.65 -15.011)" fill="#fff"/>
      </g>
    </g>
    <rect id="Rectangle_166" data-name="Rectangle 166" width="1" height="35" transform="translate(637 101)" fill="#fff"/>
    <path id="Path_445" data-name="Path 445" d="M13.37.42c6.895,0,11.585-5.18,11.585-12.075S20.265-23.73,13.37-23.73c-6.93,0-11.585,5.18-11.585,12.075S6.44.42,13.37.42Zm0-2.59c-5.25,0-8.575-4.06-8.575-9.485,0-5.46,3.325-9.485,8.575-9.485,5.215,0,8.575,4.025,8.575,9.485C21.945-6.23,18.585-2.17,13.37-2.17ZM48.825,0V-23.345h-2.9V-5.11L32.48-23.345H29.5V0H32.41V-18.62L46.025,0ZM68.04,0V-2.59H57.19V-23.345h-2.9V0Zm7,0V-23.345h-2.9V0ZM99.82,0V-23.345h-2.9V-5.11L83.475-23.345H80.5V0h2.9V-18.62L97.02,0Zm20.755,0V-2.59h-12.39v-8.05H120.33v-2.59H108.185v-7.525h12.39v-2.59H105.28V0Z" transform="translate(655 129)" fill="#fff"/>
  </g>
</svg>
