<svg xmlns="http://www.w3.org/2000/svg" width="286" height="46.09" viewBox="0 0 286 46.09"><g transform="translate(-4.581 -5.048)"><path d="M77.769,17c-1.346-1.06-2.626-.927-3.176-.272l-2.109,2.5V16.457h-5.1v.431c1.287.033,1.763.324,1.763,1.546v6.4c0,1.306-.372,1.728-1.675,1.744l-.017.488h6.736v-.448c-1.308-.1-1.7-.517-1.7-1.785v-3.6a1.8,1.8,0,0,1,1.792-2,3.71,3.71,0,0,1,2.738,1.744Zm-15.56-.515c-3.384,0-6.121,2.416-6.121,5.395s2.738,5.4,6.121,5.4c3.355,0,6.1-2.416,6.1-5.4S65.564,16.483,62.209,16.483Zm-.052,9.855c-1.663,0-3.038-2.044-3.038-4.511s1.375-4.484,3.038-4.484,3,2.016,3,4.484S63.817,26.338,62.157,26.338Zm43.307-9.855c-3.355,0-6.1,2.416-6.1,5.395s2.74,5.4,6.1,5.4c3.384,0,6.124-2.416,6.124-5.4S108.847,16.483,105.464,16.483Zm-.026,9.855c-1.663,0-3.038-2.044-3.038-4.511s1.375-4.484,3.038-4.484,3,2.016,3,4.484S107.1,26.338,105.438,26.338ZM55.256,24.911V12.8H50.188v.441c1.272.086,1.6.3,1.661,1.415V24.773c0,1.411-.334,1.8-1.58,1.828v.472h6.622v-.443C55.644,26.543,55.282,26.128,55.256,24.911Zm31.136-.191V19.433c0-1.723-2.2-2.974-4.091-2.974-2.083,0-4.532,1.137-4.73,3.92a3.718,3.718,0,0,1,4.589-1.613c1.141.474,1.394,1.894.505,2.145l-3.536,1.053a2.675,2.675,0,0,0-2.168,2.728,2.645,2.645,0,0,0,2.9,2.583A5.07,5.07,0,0,0,83.3,25.692a2.255,2.255,0,0,0,2.2,1.616,2.5,2.5,0,0,0,2.145-1.728C86.835,25.995,86.392,25.609,86.392,24.72ZM81.633,25.8A1.613,1.613,0,0,1,79.994,24a1.512,1.512,0,0,1,.8-1.339l2.395-1.084.029,2.507C83.22,25.163,82.691,25.8,81.633,25.8Zm16.677-.81V12.8H93.4v.362c1.322.112,1.716.06,1.716,1.432l-.033,2.983a4.192,4.192,0,0,0-3.057-1.091c-2.979,0-4.916,2.776-4.916,5.247,0,2.978,1.513,5.34,5.759,5.34h6.963V26.65C98.735,26.4,98.311,25.752,98.311,24.994Zm-3.2.2a1.108,1.108,0,0,1-1.21,1.094c-2.08-.055-3.51-2.354-3.6-4.6-.052-1.687.76-4.1,2.669-4.132,1.208-.029,2.137.448,2.137,1.885Zm-50-8.709c-3.386,0-6.124,2.416-6.124,5.4A4.8,4.8,0,0,0,39.27,23.5a6.267,6.267,0,0,1-4.649,2.178c-6.081-.372-6.138-11.959.172-11.873,3.612.057,4.044,2.952,4.3,4.387l.548-.169-.062-5.052h-.457a.757.757,0,0,1-.772.636,14.974,14.974,0,0,0-4.446-.834c-2.321.055-7.661,1.546-7.744,7.227-.086,5.709,4.644,7.372,7.6,7.313A8.274,8.274,0,0,0,39.642,24.3a6.228,6.228,0,0,0,5.471,2.988c3.355,0,6.1-2.419,6.1-5.407S48.467,16.48,45.112,16.48Zm-.052,9.86c-1.666,0-3.038-2.044-3.038-4.513s1.372-4.484,3.038-4.484,3.007,2.013,3.007,4.484S46.723,26.34,45.06,26.34Zm195.208-1.432V16.454H235.3v.453c1.137-.021,1.33.267,1.58.517s.2,1.177.2,1.806v5.464a2.035,2.035,0,0,1-.372,1.554,1.943,1.943,0,0,1-1.284.4v.419h6.577v-.419C240.826,26.584,240.23,26.333,240.268,24.908Zm.255-13.043c0-2.287-3.734-2.276-3.734,0C236.789,14.164,240.523,14.179,240.523,11.865Zm-16.317,4.861-2.109,2.5V16.457H217v.431c1.284.033,1.763.324,1.763,1.544v6.4c0,1.306-.369,1.728-1.675,1.742l-.017.488H223.8v-.448c-1.308-.1-1.7-.515-1.7-1.782V21.239a1.8,1.8,0,0,1,1.792-2,3.722,3.722,0,0,1,2.735,1.742L227.377,17C226.036,15.94,224.754,16.073,224.206,16.726ZM217.7,23.341c-1.635,2.335-2.874,2.457-4.3,2.395-1.761-.074-3.231-2.271-3.172-4.635h7.356c-.238-2.712-1.623-4.689-4.8-4.644-3.481.045-6.152,2.033-6.04,5.769.11,3.591,3.567,5.08,5.876,5.068a5.293,5.293,0,0,0,5.416-3.617Zm-5.295-5.95c.967,0,1.825,1.187,1.763,2.671h-3.824C210.431,18.456,211.443,17.391,212.4,17.391ZM195.5,11.87c0-2.285-3.727-2.271-3.727,0C191.776,14.174,195.5,14.186,195.5,11.87Zm12.824,5.052v-.46H204.1v.46c.855.062,1.289.438,1.289,1.125a3.341,3.341,0,0,1-.431,1.444L203.1,23.236l-2.4-4.694a1.7,1.7,0,0,1-.191-.686c0-.5.334-.815,1-.934v-.46h-6.252v0h-4.968v.45c1.144-.021,1.351.253,1.582.517.25.284.2,1.179.2,1.809V24.7a2.063,2.063,0,0,1-.365,1.549,1.4,1.4,0,0,1-.755.331,1.784,1.784,0,0,1-1.017-.362c-.324-.231-.412-.941-.412-1.585V20.164a3.623,3.623,0,0,0-1.025-2.7,3.443,3.443,0,0,0-2.516-1.013,4.419,4.419,0,0,0-3.893,2.495h-.041V16.452h-4.828v.45a1.87,1.87,0,0,1,1.322.348c.272.264.362.569.329,1.885v5.7a1.884,1.884,0,0,1-.424,1.48,1.528,1.528,0,0,1-.863.288,1.651,1.651,0,0,1-1.032-.367c-.264-.262-.379-.641-.353-1.6V12.835h-4.673v.419a1.99,1.99,0,0,1,1.294.334c.222.253.355.36.331,1.661v8.881c-1.246,1.313-2.3,1.973-3.457,1.973a2.517,2.517,0,0,1-1.923-.739,2.863,2.863,0,0,1-.7-2.047l0-10.482h-4.854l0,.419a1.877,1.877,0,0,1,1.315.374,2.493,2.493,0,0,1,.284,1.62V22.7a4.575,4.575,0,0,0,1.284,3.438,4.766,4.766,0,0,0,3.5,1.282,5.05,5.05,0,0,0,2.276-.477,9.269,9.269,0,0,0,2.235-1.789V27.06h4.346v0h6.126v-.4a1.608,1.608,0,0,1-1.034-.348c-.443-.384-.477-.865-.5-1.663V19.89A2.889,2.889,0,0,1,184.6,18.1a1.644,1.644,0,0,1,1.382.643,2.9,2.9,0,0,1,.488,1.789v4.227a2.06,2.06,0,0,1-.4,1.453,1.825,1.825,0,0,1-1.2.384v.465h5.542v0h6.574v-.424c-1.182-.057-1.773-.307-1.737-1.732V16.952a2.184,2.184,0,0,1,1.129.465,5.631,5.631,0,0,1,1.182,1.692l3.924,7.963h.593l3.767-7.777A6,6,0,0,1,207,17.534,2.177,2.177,0,0,1,208.327,16.921ZM235,21.689a7.837,7.837,0,0,0-3.074-1.673A7.4,7.4,0,0,1,230,19.133a1.054,1.054,0,0,1-.431-.832.927.927,0,0,1,.512-.793,2.384,2.384,0,0,1,1.27-.315,3.2,3.2,0,0,1,1.932.636,4.167,4.167,0,0,1,1.353,1.77h.481V17.181a12.633,12.633,0,0,0-3.958-.705,4,4,0,0,0-2.683.882,2.73,2.73,0,0,0-1.039,2.175,2.576,2.576,0,0,0,.686,1.82,7.543,7.543,0,0,0,2.852,1.523,7.258,7.258,0,0,1,2.211,1.084,1.469,1.469,0,0,1,.505,1.118,1.241,1.241,0,0,1-.558,1.017,2.144,2.144,0,0,1-1.33.427q-2.262,0-3.855-3.138h-.486v3.324l0,.019a17.28,17.28,0,0,0,4.461.562,4.067,4.067,0,0,0,2.666-1.053,3.075,3.075,0,0,0,1.182-2.442A3.023,3.023,0,0,0,235,21.689Zm-79.7,4.046c-1.763-.074-3.231-2.271-3.174-4.632h7.358c-.241-2.714-1.623-4.689-4.8-4.646-3.479.048-6.152,2.033-6.043,5.769a4.755,4.755,0,0,0,.7,2.39c-1.311,1.413-2.948,1.029-2.948-1.118l-.01-5.967,3.2,0,0-1.058-3.193.01.007-4.8-.419-.141v.019a5.583,5.583,0,0,1-4.444,4.911l0,1.058H142.9v6.372a3.2,3.2,0,0,0,2.013,3.1,3.646,3.646,0,0,0,4.785-1.885,6.428,6.428,0,0,0,4.823,2.171,5.291,5.291,0,0,0,5.416-3.617l-.336-.334C157.966,25.676,156.72,25.8,155.3,25.735Zm-.989-8.342c.963,0,1.818,1.184,1.763,2.671h-3.829C152.336,18.456,153.344,17.393,154.309,17.393ZM141.253,24.72V19.44c0-1.716-2.149-2.983-3.986-2.978-2.028,0-4.418,1.132-4.608,3.934,1.118-1.62,2.743-2.342,4.465-1.62,1.122.465,1.368,1.885.5,2.142l-3.455,1.051a2.686,2.686,0,0,0-2.109,2.726,2.882,2.882,0,0,0,.045.393c-1.835.81-2.621-.2-2.621-1.856l.012-5.695h3.2l.012-1.063h-3.193l.01-4.8-.458-.112c-.555,2.974-1.334,3.874-3.705,4.854l.024-4.708a11.3,11.3,0,0,0-7.98-.169,4.4,4.4,0,0,0-1.151,7.627l4.237,3.462c2.364,1.937,1.3,5.385-.951,5.916a4.872,4.872,0,0,1-4.971-2.242L114,26.61a6.493,6.493,0,0,0,5.871,3.534c2.2-.086,5.028-1.375,5.712-3.591a6.11,6.11,0,0,0-1.754-6.21l-4.923-3.87a2.094,2.094,0,0,1-.989-1.963,3.141,3.141,0,0,1,3.088-2.719c2.335-.043,3.865,2.635,3.917,5.733l1.215-.014v6.057c0,2.1.9,3.619,2.795,3.731a4.171,4.171,0,0,0,3.474-1.334A2.539,2.539,0,0,0,134.87,27.3a4.971,4.971,0,0,0,3.376-1.6,2.2,2.2,0,0,0,2.152,1.616,2.483,2.483,0,0,0,2.094-1.72C141.687,26,141.253,25.616,141.253,24.72Zm-4.623,1.1a1.607,1.607,0,0,1-1.611-1.811,1.481,1.481,0,0,1,.784-1.342l2.347-1.077,0,2.507C138.156,25.171,137.641,25.816,136.631,25.823Zm119.354-9.362v.5c.925.179,1.377.636,1.377,1.368a5.55,5.55,0,0,1-.617,2.092l-1.568,3.5-2.411-4.785a3.741,3.741,0,0,1-.469-1.368q0-.672,1.082-.81v-.5H248.7v0l-1.218,0h-1.118v0l-.867,0,0-4.792-.419-.143c-.479,3.014-2.037,4.592-4.32,4.935l0,1.051h1.244v6.388a3.2,3.2,0,0,0,2.018,3.11c2.044.846,3.922-.093,4.918-2.106-.029.1-.4-.5-.4-.376-1.325,1.525-3.036,1.163-3.036-1.034l-.01-5.964s2.74-.069,3.66,1.851l4.222,8.492a9.573,9.573,0,0,1-1.551,2.5,3.436,3.436,0,0,1-2.583,1.1,5.144,5.144,0,0,1-1.544-.257l-.7,3.288a7.666,7.666,0,0,0,.965.052,4.731,4.731,0,0,0,2.888-.808,7.1,7.1,0,0,0,2-2.8l5.13-11.2a7.691,7.691,0,0,1,1.2-2.044,3.342,3.342,0,0,1,1.551-.753v-.5Z" transform="translate(29.837 7.06)" fill="#fff"/><g transform="translate(4.581 5.049)"><circle cx="23.045" cy="23.045" r="23.045" fill="#c7b758"/><circle cx="22.09" cy="22.09" r="22.09" transform="translate(0.955 0.955)" fill="#003c19"/><g transform="translate(2.164 2.155)"><path d="M24.072,16.013c-.1-.865-.867-1.134-1.537-1.344a4.636,4.636,0,0,0-3.331.21c.612-.7.462-1.868-.343-2-1.508-.238-1.091,1.389-.732,2.152.238.477.536,1.268,1.284,1.208.91-.074.774-.822,2.09-.925,0,0,1.642.119,1.613.643-.06.774-.913,1.058-1.463,1.251-.822.272-1.763-.131-2.435.629a1.034,1.034,0,0,0-.3.851c.076.284.107.164,1.017.238a4.2,4.2,0,0,0-.822,2.421c-.026,2.254-.6,4-.372,4.778,1.091-1.315,1.075-3.3,1.253-4.882a5.727,5.727,0,0,1,.808-2.33c.462-.7,1.344-.732,1.925-1.163C23.281,17.343,24.146,16.657,24.072,16.013Z" transform="translate(11.52 3.59)" fill="#fff"/><path d="M15.55,20.87c.612-.939,1.256-2.988.882-3.853a3.886,3.886,0,0,1-1.749-1.358c-.431-.627-.684-1.327-1.446-1.537a1.89,1.89,0,0,0-1.494.15c-.672.386-.834,1.311-.939,2.042a12.882,12.882,0,0,0,.894,5.137,22.781,22.781,0,0,0,2.4,4.406A7.675,7.675,0,0,1,15.55,20.87Zm-1.973-3.329c-.3-.524-1.058-.419-1.418-.629a1.041,1.041,0,0,1-.014-1.67c.7-.643,2.526,1.418,2.121,3.031C14.087,18.329,14,18.227,13.577,17.541Z" transform="translate(1.854 5.215)" fill="#fff"/><path d="M17.994,19.8a21.894,21.894,0,0,1-2.261.238,21.963,21.963,0,0,1-2.261-.238.277.277,0,0,0-.21.074c-.443.944,2.1,1.465,2.464,1.449.367.017,2.921-.505,2.478-1.449A.277.277,0,0,0,17.994,19.8Z" transform="translate(5.188 13.196)" fill="#fff"/><path d="M13.367,12.878c-.791.133-.941,1.3-.346,2a4.565,4.565,0,0,0-3.312-.21c-.672.21-1.434.479-1.539,1.344-.074.643.791,1.33,1.344,1.735.569.431,1.465.462,1.928,1.163a6.062,6.062,0,0,1,.808,2.33c.176,1.585.148,3.567,1.253,4.882.207-.777-.36-2.523-.372-4.778a4.34,4.34,0,0,0-.822-2.421c.908-.074.925.045,1-.238a.988.988,0,0,0-.3-.851c-.658-.76-1.6-.357-2.435-.629-.553-.193-1.4-.477-1.449-1.251-.029-.524,1.616-.643,1.616-.643,1.313.1,1.163.851,2.073.925.746.06,1.06-.732,1.3-1.208C14.473,14.267,14.89,12.639,13.367,12.878Z" transform="translate(-1.787 3.59)" fill="#fff"/><path d="M16.7,16.332v0h-.029v0c-.715.014-1.1.617-1.763,1.313C13.763,18.9,11.4,22.018,13.12,23.5a3.108,3.108,0,0,0,3.136.686c.343-.238.15-.939-.029-1.256-.643-.834-1.644-.505-1.928-.925a.716.716,0,0,1,.076-.925c.238-.3.624-.224.955-.136a2.653,2.653,0,0,1,1.344.734v.029l.014-.014.014.014v-.029a2.588,2.588,0,0,1,1.344-.734c.315-.088.717-.162.941.136a.7.7,0,0,1,.076.925c-.286.419-1.27.091-1.913.925-.179.317-.388,1.017-.045,1.256a3.1,3.1,0,0,0,3.136-.686c1.732-1.48-.627-4.6-1.792-5.852C17.8,16.952,17.4,16.347,16.7,16.332Z" transform="translate(4.224 8.396)" fill="#fff"/><path d="M20.091,14.272a1.884,1.884,0,0,0-1.492-.15c-.762.21-1,.91-1.451,1.537A3.856,3.856,0,0,1,15.4,17.017c-.374.865.272,2.914.882,3.853a7.676,7.676,0,0,1,1.463,4.987,21.8,21.8,0,0,0,2.388-4.406,12.6,12.6,0,0,0,.9-5.137A2.63,2.63,0,0,0,20.091,14.272Zm-.417,2.64c-.343.21-1.106.1-1.418.629-.419.686-.51.789-.689.732-.4-1.613,1.418-3.674,2.121-3.031A1.032,1.032,0,0,1,19.674,16.912Z" transform="translate(8.065 5.215)" fill="#fff"/><path d="M26.377,5.953a20.89,20.89,0,1,0,20.876,20.89A20.921,20.921,0,0,0,26.377,5.953Zm15.6,33.278a5.538,5.538,0,0,1-2.5,2.075,2.4,2.4,0,0,1-1.947.06,1.663,1.663,0,0,1-.92-1.3,4.148,4.148,0,0,1,.753-2.478,14.024,14.024,0,0,1,3.319-3.672c2.1-1.554,3.56-1.987,3.017-2.345-.376-.255-2.366.836-2.759,1.046-2.233,1.149-5.311,4.477-5.671,6.943a2.743,2.743,0,0,0,2.871,2.914,18.975,18.975,0,0,1-11.759,4.015h-.017A18.983,18.983,0,0,1,14.6,42.474a2.744,2.744,0,0,0,2.874-2.914c-.362-2.466-3.453-5.795-5.669-6.943-.393-.21-2.385-1.3-2.762-1.046-.543.357.92.791,3.017,2.345a13.834,13.834,0,0,1,3.3,3.672,4.037,4.037,0,0,1,.77,2.478,1.689,1.689,0,0,1-.92,1.3,2.435,2.435,0,0,1-1.961-.06,5.591,5.591,0,0,1-2.488-2.075,20.315,20.315,0,0,1-3.243-5.988c.555,1.239,4.086,6.419,5.654,6.5,1.613.088-1.568-4.21-3.755-6A2.9,2.9,0,0,1,8.17,31.987a.782.782,0,0,1,.782-1c.877-.029,3.152,1.151,3.181,1.106-3.948-7.091,2.1-10.675-.405-12.229-.877-.555-2.728,0-3.741.148,9.307-5.495,10.932-.014,13.739,2.509.438.4,2.411,0,2.79-.462.5-.6,1.492-2.75.362-4.168-1.561-1.975-7.837-7.642-13.775-3.367A17.646,17.646,0,0,1,17.329,9.4a19.111,19.111,0,0,1,9.047-2.2h.017a19.371,19.371,0,0,1,15.243,7.325c-5.95-4.272-12.212,1.4-13.787,3.369-1.115,1.418-.136,3.569.362,4.168.391.462,2.366.865,2.8.462,2.8-2.523,4.434-8,13.737-2.509-1.008-.148-2.878-.7-3.736-.148-2.507,1.554,3.527,5.137-.41,12.229.031.045,2.309-1.134,3.183-1.106a.786.786,0,0,1,.784,1,2.977,2.977,0,0,1-1.251,1.749c-2.187,1.792-5.368,6.09-3.772,6s5.113-5.256,5.671-6.5A20.593,20.593,0,0,1,41.979,39.231Zm-3.243,3.133ZM42.4,15.129Z" transform="translate(-5.489 -5.953)" fill="#fff"/></g></g></g></svg>