<?xml version="1.0" encoding="UTF-8"?> <svg xmlns="http://www.w3.org/2000/svg" id="Layer_1" data-name="Layer 1" viewBox="0 0 125.4 27.28"><defs><style>.cls-1{fill:#cbc46e;stroke:#cbc46e;stroke-width:1.05px;}.cls-1,.cls-2,.cls-4{stroke-miterlimit:10;}.cls-2{fill:#004c23;stroke:#004c23;stroke-width:0.47px;}.cls-3{fill:#fff;}.cls-4,.cls-5{fill:none;}.cls-4{stroke:#fff;stroke-width:0.19px;}</style></defs><path class="cls-1" d="M13.53,25.67a11.91,11.91,0,1,1,11.9-11.91A11.92,11.92,0,0,1,13.53,25.67Zm0-23.36A11.46,11.46,0,1,0,25,13.76,11.46,11.46,0,0,0,13.53,2.31Z"></path><path class="cls-2" d="M13.53,2.08A11.69,11.69,0,1,0,25.21,13.76,11.71,11.71,0,0,0,13.53,2.08Z"></path><path class="cls-3" d="M13.53,2.5A11.27,11.27,0,1,0,24.79,13.76,11.28,11.28,0,0,0,13.53,2.5Zm7.06,19.07a1.32,1.32,0,0,1-1.05,0,.91.91,0,0,1-.49-.7,2.25,2.25,0,0,1,.4-1.34,7.82,7.82,0,0,1,1.79-2c1.14-.84,1.92-1.07,1.63-1.27s-1.27.46-1.49.57a6.59,6.59,0,0,0-3.06,3.74,1.49,1.49,0,0,0,1.88,1.52,10.34,10.34,0,0,1-6.67,2.38h0a10.34,10.34,0,0,1-6.67-2.38,1.49,1.49,0,0,0,1.88-1.52c-.2-1.33-1.87-3.12-3.06-3.74-.21-.11-1.29-.7-1.49-.57s.49.43,1.62,1.27a7.45,7.45,0,0,1,1.79,2A2.19,2.19,0,0,1,8,20.9a.92.92,0,0,1-.5.7,1.32,1.32,0,0,1-1,0,3.06,3.06,0,0,1-1.34-1.12,11,11,0,0,1-1.75-3.23c.3.67,2.2,3.46,3.05,3.5s-.85-2.27-2-3.24a1.56,1.56,0,0,1-.67-.94A.42.42,0,0,1,4.13,16a7,7,0,0,1,1.71.6C3.71,12.77,7,10.84,5.63,10c-.48-.3-1.48,0-2,.08,5-3,5.9,0,7.41,1.35.23.22,1.3,0,1.5-.25a2,2,0,0,0,.2-2.24C11.84,7.82,8.2,4.55,4.88,7.45a10.64,10.64,0,0,1,17.29,0c-3.33-2.9-7,.37-7.85,1.49a2,2,0,0,0,.2,2.24c.21.25,1.27.47,1.51.25,1.51-1.36,2.39-4.31,7.41-1.35-.54-.08-1.55-.38-2-.08-1.35.84,1.91,2.77-.22,6.6a7.26,7.26,0,0,1,1.72-.6.42.42,0,0,1,.42.54,1.56,1.56,0,0,1-.67.94c-1.18,1-2.9,3.29-2,3.24s2.76-2.83,3.06-3.5a11.24,11.24,0,0,1-1.75,3.23A3,3,0,0,1,20.59,21.57ZM14.77,20.3a11.16,11.16,0,0,1-1.22.12,10.93,10.93,0,0,1-1.22-.12.15.15,0,0,0-.12,0c-.24.51,1.13.79,1.33.78s1.58-.27,1.34-.78A.14.14,0,0,0,14.77,20.3Zm-1.22-4.47h0c-.38,0-.59.34-.95.71-.62.68-1.89,2.36-1,3.16a1.68,1.68,0,0,0,1.69.37c.18-.13.08-.51,0-.68-.34-.45-.88-.27-1-.5a.39.39,0,0,1,0-.49c.13-.17.34-.13.52-.08a1.41,1.41,0,0,1,.72.4h0a1.35,1.35,0,0,1,.72-.4c.17-.05.39-.09.51.08a.36.36,0,0,1,0,.49c-.15.23-.68.05-1,.5-.09.17-.21.55,0,.68a1.67,1.67,0,0,0,1.69-.37c.93-.8-.34-2.48-1-3.16C14.14,16.17,13.93,15.84,13.55,15.83Zm7.91-2.76c-.06-.47-.47-.61-.83-.72a2.53,2.53,0,0,0-1.8.11c.33-.38.25-1-.18-1.08-.82-.13-.59.75-.4,1.16s.29.68.7.65.41-.44,1.12-.5c0,0,.89.07.87.35s-.49.57-.78.67c-.45.15-1-.07-1.32.34a.57.57,0,0,0-.16.46c0,.16.06.09.55.13A2.17,2.17,0,0,0,18.79,16c0,1.21-.33,2.15-.21,2.57a4.92,4.92,0,0,0,.68-2.63,3.2,3.2,0,0,1,.44-1.26c.25-.38.72-.39,1-.62S21.5,13.42,21.46,13.07ZM8.51,11.38c-.43.07-.51.7-.19,1.08a2.49,2.49,0,0,0-1.79-.11c-.36.11-.77.25-.83.72s.43.72.73.94.79.24,1,.62a3.19,3.19,0,0,1,.43,1.26,4.84,4.84,0,0,0,.68,2.63c.11-.42-.19-1.36-.2-2.57a2.39,2.39,0,0,0-.44-1.31c.49,0,.5,0,.54-.13a.55.55,0,0,0-.17-.46c-.35-.41-.86-.19-1.31-.34-.3-.1-.76-.25-.78-.67s.87-.35.87-.35c.71.06.63.46,1.12.5s.57-.39.7-.65S9.33,11.25,8.51,11.38Zm3.14,5.19a3,3,0,0,0,.47-2.08,2.16,2.16,0,0,1-.94-.73c-.23-.34-.37-.72-.78-.83a1,1,0,0,0-.8.08,1.39,1.39,0,0,0-.51,1.1,7,7,0,0,0,.48,2.77,12.23,12.23,0,0,0,1.3,2.38A4.11,4.11,0,0,1,11.65,16.57Zm-1.07-1.8c-.16-.28-.57-.23-.76-.34a.56.56,0,0,1,0-.9c.38-.35,1.36.77,1.15,1.63C10.86,15.2,10.81,15.14,10.58,14.77ZM17.45,13a1,1,0,0,0-.81-.08c-.41.11-.54.49-.78.83a2.1,2.1,0,0,1-.94.73,3.07,3.07,0,0,0,.47,2.08,4.1,4.1,0,0,1,.79,2.69,11.58,11.58,0,0,0,1.29-2.38A6.79,6.79,0,0,0,18,14.11,1.42,1.42,0,0,0,17.45,13Zm-.23,1.42c-.18.11-.59.06-.76.34s-.28.43-.37.39c-.22-.86.76-2,1.14-1.63A.55.55,0,0,1,17.22,14.43Z"></path><path class="cls-4" d="M20.2,22.14a10.34,10.34,0,0,1-6.67,2.38h0a10.34,10.34,0,0,1-6.67-2.38"></path><path class="cls-4" d="M4.88,7.45a10.64,10.64,0,0,1,17.29,0"></path><path class="cls-3" d="M37.5,5.1H32c-2.46,0-3.82,1.23-3.82,3.46v9.81c0,2.23,1.36,3.46,3.82,3.46H37.5c2.46,0,3.82-1.23,3.82-3.46V15.76H37.64v2.45c0,.23,0,.47-.59.47H32.37c-.49,0-.56-.23-.56-.47V8.72c0-.24.07-.47.56-.47h4.68c.55,0,.59.24.59.47v2.45h3.68V8.56C41.32,6.33,40,5.1,37.5,5.1Z"></path><path class="cls-3" d="M53.76,12.23l-4.6-.91c-.81-.18-.88-.33-.88-.77V8.68c0-.24,0-.5.59-.5h4.28c.47,0,.57.2.57.5v1.93h3.62v-2c0-2.23-1.35-3.46-3.82-3.46h-5.1C46,5.1,44.6,6.33,44.6,8.56v2.37c0,2.43,1.85,3.14,3.85,3.55l4.61.93c.79.17.88.3.88.75v2.09c0,.3-.1.5-.57.5H48.74c-.47,0-.56-.2-.56-.5V16.14H44.55v2.23c0,2.23,1.36,3.46,3.82,3.46H53.8c2.46,0,3.81-1.23,3.81-3.46V15.78C57.61,13.34,55.77,12.63,53.76,12.23Z"></path><path class="cls-3" d="M70.12,18.21c0,.24-.07.47-.56.47H64.65c-.52,0-.59-.23-.59-.47V5.1H60.39V18.37c0,2.23,1.36,3.46,3.82,3.46H70c2.46,0,3.82-1.23,3.82-3.46V5.1H70.12Z"></path><rect class="cls-3" x="76.94" y="3.08" width="0.65" height="21.25"></rect><path class="cls-3" d="M87.83,14c0,2.29-1.22,4.38-3.81,4.38-2.37,0-3.74-1.91-3.74-4.32S81.61,9.7,84.1,9.7C86.4,9.7,87.83,11.51,87.83,14ZM81,14c0,1.93,1.07,3.75,3.08,3.75,2.17,0,3.09-1.78,3.09-3.77s-1-3.67-3.06-3.67S81,12.09,81,14Z"></path><path class="cls-3" d="M89.68,18.22V9.82h1c1.31,2,4.38,6.71,4.91,7.62h0c-.07-1.21-.06-2.45-.06-3.81V9.82h.66v8.4h-.89c-1.25-1.94-4.36-6.83-5-7.75h0c.06,1.1,0,2.33,0,3.85v3.9Z"></path><path class="cls-3" d="M98.63,9.82h.65v7.8h4.51l-.12.6h-5Z"></path><path class="cls-3" d="M105.74,9.82v8.4h-.65V9.82Z"></path><path class="cls-3" d="M108.21,18.22V9.82h1c1.31,2,4.38,6.71,4.9,7.62h0C114,16.23,114,15,114,13.63V9.82h.66v8.4h-.89c-1.25-1.94-4.37-6.83-5-7.75h0c.06,1.1.05,2.33.05,3.85v3.9Z"></path><path class="cls-3" d="M122.09,14.09h-4.28v3.53h4.69l-.1.6h-5.24V9.82h5.15v.6h-4.5v3.07h4.28Z"></path><rect class="cls-5" x="-4.83" y="-4.63" width="180.36" height="36.66"></rect></svg> 