<?xml version="1.0" encoding="UTF-8"?> <svg xmlns="http://www.w3.org/2000/svg" width="32.343" height="32.343" viewBox="0 0 32.343 32.343"><path d="M16.172,0A16.172,16.172,0,1,0,32.343,16.172,16.172,16.172,0,0,0,16.172,0Zm8.122,13.106c.008.167.011.335.011.5A11.088,11.088,0,0,1,7.237,22.951a7.938,7.938,0,0,0,.93.054,7.822,7.822,0,0,0,4.842-1.669,3.9,3.9,0,0,1-3.642-2.708,3.891,3.891,0,0,0,1.761-.067A3.9,3.9,0,0,1,8,14.739c0-.017,0-.033,0-.05a3.87,3.87,0,0,0,1.766.488,3.9,3.9,0,0,1-1.207-5.2,11.068,11.068,0,0,0,8.036,4.073,3.9,3.9,0,0,1,6.644-3.555,7.812,7.812,0,0,0,2.475-.946A3.913,3.913,0,0,1,24,11.7a7.783,7.783,0,0,0,2.239-.614A7.932,7.932,0,0,1,24.294,13.106Z" fill="#fff"></path></svg> 