<?xml version="1.0" encoding="UTF-8"?> <svg xmlns="http://www.w3.org/2000/svg" width="74.389" height="52.947" viewBox="0 0 74.389 52.947"><g transform="translate(-505.525 -253.95)"><g transform="translate(505.525 253.95)"><path d="M522.337,335.886H505.525l4.41,5.359h19.778Z" transform="translate(-505.525 -315.428)" fill="#cbc46e"></path><path d="M714.864,335.886l-7.377,5.359h19.961l4-5.359Z" transform="translate(-657.059 -315.428)" fill="#cbc46e"></path><path d="M686.694,371.634l1.652,5.088H707.4l3.464-5.359H687.069Z" transform="translate(-641.458 -342.046)" fill="#cbc46e"></path><path d="M549.884,371.634l-.375-.271H525.485l3.817,5.359h18.927Z" transform="translate(-520.501 -342.046)" fill="#cbc46e"></path><path d="M560.618,406.852h-17.1l3.3,5.359h12.067Z" transform="translate(-534.028 -368.674)" fill="#cbc46e"></path><path d="M699.607,412.211H711.98l2.992-5.359h-17.1Z" transform="translate(-649.841 -368.674)" fill="#cbc46e"></path><path d="M598.943,283.392l-4.407,13.571H580.265l11.544,8.388L587.4,318.922l11.541-8.388,11.544,8.388-4.407-13.571,11.544-8.388H603.353Z" transform="translate(-561.603 -276.04)" fill="#cbc46e"></path><path d="M578.589,258.429a21.985,21.985,0,0,1,20.758,14.778h4.694a26.45,26.45,0,0,0-50.907,0h4.694A21.99,21.99,0,0,1,578.589,258.429Z" transform="translate(-541.247 -253.95)" fill="#cbc46e"></path><path d="M599.486,438.824a21.844,21.844,0,0,1-11.172-3.074h-7.329a26.428,26.428,0,0,0,37,0h-7.326A21.853,21.853,0,0,1,599.486,438.824Z" transform="translate(-562.143 -390.356)" fill="#cbc46e"></path></g></g></svg> 