<?xml version="1.0" encoding="UTF-8"?> <svg xmlns="http://www.w3.org/2000/svg" width="58.408" height="53" viewBox="0 0 58.408 53"><g transform="translate(-506.5 -220.809)"><g transform="translate(506.5 220.809)"><path d="M674.5,301a1.442,1.442,0,0,0-1.686-1.862c-.054.012-.106.02-.159.031A9.515,9.515,0,0,0,674.5,301Z" transform="translate(-639.976 -283.703)" fill="#d7d392"></path><path d="M547.123,254.392a1.8,1.8,0,0,1,.227-.663,10.962,10.962,0,0,1-5.274-2.1,13.386,13.386,0,0,1-1.742-1.5c-.2-.2-.346-.369-.44-.48-.048-.055-.082-.1-.1-.123l-.021-.026a1.441,1.441,0,0,0-.31-.3l-4.782-4.8a1.14,1.14,0,0,0-.246-.182,8.633,8.633,0,0,0-1.205-.853,7.141,7.141,0,0,0-3.582-1.044,6.378,6.378,0,0,0-4.544,2.012,16.9,16.9,0,0,0-3.764,6.925,1.444,1.444,0,1,0,2.749.886,14.191,14.191,0,0,1,3.049-5.76,3.281,3.281,0,0,1,3.518-1.018c-2.893,3.469-4.521,7.737-6.014,12.06a2.01,2.01,0,0,0-.1.43,2.249,2.249,0,0,0,.233,1.839h0l.012.019h0a8.222,8.222,0,0,1,.906,3.831,9.406,9.406,0,0,1-.867,3.891,15.114,15.114,0,0,1-3.674,4.857,2.256,2.256,0,0,0,3.058,3.318,19.619,19.619,0,0,0,4.732-6.325,13.935,13.935,0,0,0,1.263-5.741c0-.476-.028-.93-.072-1.36a9.5,9.5,0,0,1,2.211,1.634A7.769,7.769,0,0,1,533.9,266a7.227,7.227,0,0,1,.682,3.139,11.351,11.351,0,0,1-.793,3.962,2.256,2.256,0,1,0,4.228,1.577,15.818,15.818,0,0,0,1.077-5.539,11.735,11.735,0,0,0-1.18-5.2,12.825,12.825,0,0,0-3.888-4.6c-.338-.251-.656-.465-.945-.646a8.9,8.9,0,0,1,5.346-6.377,16.436,16.436,0,0,0,1.958,1.663,13.57,13.57,0,0,0,7.874,2.692c-.274-.3-.537-.61-.784-.937A1.792,1.792,0,0,1,547.123,254.392Z" transform="translate(-517.686 -238.095)" fill="#d7d392"></path><circle cx="4.06" cy="4.06" r="4.06" transform="matrix(0.496, -0.869, 0.869, 0.496, 17.301, 7.053)" fill="#d7d392"></circle><circle cx="4.06" cy="4.06" r="4.06" transform="translate(41.324 18.613) rotate(-87.719)" fill="#d7d392"></circle><path d="M681.684,301.467a8.85,8.85,0,0,0-2.94-.533,1.361,1.361,0,0,0-.489.008l-6.528,1.525c-.263.019-.628.036-1.069.036a15.929,15.929,0,0,1-4.961-.77h0a11.376,11.376,0,0,1-3.176-1.631,9.887,9.887,0,0,1-1.986-1.961,1.444,1.444,0,0,0-2.3,1.747,12.725,12.725,0,0,0,.987,1.148,13.683,13.683,0,0,0,5.557,3.436h0a18.806,18.806,0,0,0,5.879.919h.066c1.42,2.266,2.246,4.137,1.646,7.228a12.456,12.456,0,0,0-1.5-.8,8.679,8.679,0,0,0-3.516-.8,7.1,7.1,0,0,0-4.755,1.851,13.676,13.676,0,0,0-3.528,5.637,2.256,2.256,0,1,0,4.23,1.571,9.363,9.363,0,0,1,2.281-3.822,2.54,2.54,0,0,1,1.772-.724,4.21,4.21,0,0,1,1.68.411,10.353,10.353,0,0,1,2.5,1.678c.332.293.6.558.777.743.089.092.156.164.2.21l.042.047,0,0v0a2.255,2.255,0,0,0,2.221.727,16.5,16.5,0,0,0-.084,1.673,24.89,24.89,0,0,0,3.779,12.475,2.256,2.256,0,1,0,3.9-2.267c-2.6-4.49-3.163-7.95-3.167-10.208a10.673,10.673,0,0,1,.245-2.373c.058-.254.113-.434.148-.537.017-.051.029-.083.034-.1v0h0a2.253,2.253,0,0,0,.1-.29,2.027,2.027,0,0,0,.147-.419c.98-4.285,1.831-8.594,1.345-12.895.106.054.211.111.314.175a3.991,3.991,0,0,1,1.451,1.524,6.527,6.527,0,0,1,.683,3.173,16.1,16.1,0,0,1-.532,3.836,1.444,1.444,0,1,0,2.8.7,18.9,18.9,0,0,0,.617-4.531,9.389,9.389,0,0,0-1.036-4.556A7.056,7.056,0,0,0,681.684,301.467Z" transform="translate(-628.158 -282.476)" fill="#d7d392"></path><rect width="30.896" height="14.44" transform="translate(0 38.561)" fill="#d7d392"></rect></g></g></svg> 