<?xml version="1.0" encoding="UTF-8"?> <svg xmlns="http://www.w3.org/2000/svg" width="193.312" height="83.368" viewBox="0 0 193.312 83.368"><path d="M127.012,46.944h-4.7V54h31.92V39.888h-7.84V47h-10.64V21.8h4.984v-7H122.308v7h4.7ZM171.756,54V47.056h-4.48l1.456-5.152h11.816l1.512,5.152h-4.48V54h17.7V46.944h-3.752l-9.632-29.512c-.728-2.184-1.512-2.8-3.7-2.8h-6.328c-2.184,0-2.968.616-3.7,2.8L158.54,46.944h-3.808V54Zm2.52-31.528H175l3.7,12.768h-8.12Zm50.9,17.64h-.56l-10.864-22.96c-.952-1.848-1.568-2.352-3.64-2.352h-14v7h4.7V46.944h-4.7V54h17.416V46.944h-4.7V26.84h.56L221.2,51.648c.9,1.848,1.512,2.352,3.64,2.352h8.344V21.8h4.592v-7H220.644v7h4.536ZM260.908,14.8H239.18v7h4.7V46.944h-4.7V54h21.728c4.984,0,7.672-.784,9.8-2.912,2.52-2.52,3.808-7,3.808-16.688,0-9.744-1.288-14.168-3.808-16.688C268.58,15.528,265.892,14.8,260.908,14.8Zm-8.288,7h7.112c2.352,0,3.3.168,4.144,1.008C264.884,23.816,265.22,26,265.22,34.4s-.336,10.584-1.344,11.592c-.84.784-1.792.952-4.144.952H252.62ZM134.936,71.68c-.112-7.056-.672-9.24-2.632-11.144-1.176-1.176-3.192-1.736-6.664-1.736H112.7c-3.7,0-5.208.5-6.552,1.848-2.128,2.072-3.136,5.712-3.136,17.752,0,11.984,1.008,15.624,3.136,17.752C107.5,97.5,109.008,98,112.7,98h13.048c3.36,0,5.264-.5,6.72-1.96,1.96-1.96,2.8-4.872,2.8-13.888v-5.32h-16.52v6.552h7.84V84.5c0,3.864-.28,5.432-.672,5.824s-.952.5-2.52.5h-7.784c-1.736,0-2.184-.112-2.576-.5-.5-.5-.728-2.352-.728-11.928,0-9.632.224-11.368.728-11.928.392-.336.84-.448,2.576-.448h7.5c1.68,0,2.128.168,2.464.448.392.448.56,1.288.672,5.208Zm36.792,15.288c-.168-5.712-1.68-7.112-5.712-7.952V78.9c4.536-.784,6.272-2.3,6.272-9.24,0-5.376-.616-7.392-2.24-9.016-1.344-1.344-3.3-1.848-6.272-1.848H138.52v7h4.7V90.944h-4.7V98h18.256V90.944H151.96v-8.9h6.16c1.96,0,2.744.224,3.472.9.616.672.9,1.512,1.008,4.536.224,7.168.672,8.624,1.512,9.464.672.672,1.512,1.064,3.864,1.064h8.064V90.888H171.9C171.84,89.712,171.728,88.144,171.728,86.968ZM151.96,75.488V65.744h7.9c1.624,0,2.184.168,2.52.448.5.56.672,1.456.672,4.48s-.168,3.864-.672,4.368c-.336.336-.9.448-2.52.448ZM192.728,98V91.056h-4.48L189.7,85.9H201.52l1.512,5.152h-4.48V98h17.7V90.944H212.5l-9.632-29.512c-.728-2.184-1.512-2.8-3.7-2.8H192.84c-2.184,0-2.968.616-3.7,2.8l-9.632,29.512H175.7V98Zm2.52-31.528h.728l3.7,12.768h-8.12Zm50.9,17.64h-.56l-10.864-22.96c-.952-1.848-1.568-2.352-3.64-2.352h-14v7h4.7V90.944h-4.7V98H234.5V90.944h-4.7V70.84h.56l11.816,24.808c.9,1.848,1.512,2.352,3.64,2.352h8.344V65.8h4.592v-7H241.616v7h4.536Zm36.4,6.832V65.688h6.384v7.448h7.392V58.8H260.04V73.136h7.392V65.688h6.384V90.944h-5.04V98h18.816V90.944Z" transform="translate(-103.016 -14.632)" fill="#276337"></path></svg> 